<?xml version="1.0" encoding="UTF-8" standalone="no"?>
<!DOCTYPE svg PUBLIC "-//W3C//DTD SVG 1.1//EN" "http://www.w3.org/Graphics/SVG/1.1/DTD/svg11.dtd">
<!-- 由 Microsoft Visio, SVG Export 生成 Autoencoder_structure.svg Page-1 -->
<svg xmlns="http://www.w3.org/2000/svg" xmlns:xlink="http://www.w3.org/1999/xlink" xmlns:ev="http://www.w3.org/2001/xml-events"
		xmlns:v="http://schemas.microsoft.com/visio/2003/SVGExtensions/" width="8.5448in" height="4.31483in"
		viewBox="0 0 615.226 310.668" xml:space="preserve" color-interpolation-filters="sRGB" class="st14">
	<v:documentProperties v:langID="2052" v:metric="true" v:viewMarkup="false">
		<v:userDefs>
			<v:ud v:nameU="msvSubprocessMaster" v:prompt="" v:val="VT4(Rectangle)"/>
			<v:ud v:nameU="msvNoAutoConnect" v:val="VT0(1):26"/>
		</v:userDefs>
	</v:documentProperties>

	<style type="text/css">
	<![CDATA[
		.st1 {visibility:visible}
		.st2 {fill:#5b9bd5;fill-opacity:0.22;filter:url(#filter_2);stroke:#5b9bd5;stroke-opacity:0.22}
		.st3 {fill:#ffd965;stroke:#c7c8c8;stroke-width:0.25}
		.st4 {fill:#70ad47;stroke:#c7c8c8;stroke-width:0.25}
		.st5 {fill:#5b9bd5;stroke:#c7c8c8;stroke-width:0.25}
		.st6 {fill:#ff0000;stroke:#c7c8c8;stroke-width:0.25}
		.st7 {fill:none;stroke:none;stroke-width:0.25}
		.st8 {fill:#000000;font-family:Calibri;font-size:1.99999em;font-weight:bold}
		.st9 {font-size:1em}
		.st10 {fill:#5b9bd5;fill-opacity:0.25;filter:url(#filter_2);stroke:#5b9bd5;stroke-opacity:0.25}
		.st11 {fill:#ffffff;stroke:#000000;stroke-width:1.5}
		.st12 {marker-end:url(#mrkr13-129);stroke:#000000;stroke-linecap:round;stroke-linejoin:round;stroke-width:2.25}
		.st13 {fill:#000000;fill-opacity:1;stroke:#000000;stroke-opacity:1;stroke-width:0.47169811320755}
		.st14 {fill:none;fill-rule:evenodd;font-size:12px;overflow:visible;stroke-linecap:square;stroke-miterlimit:3}
	]]>
	</style>

	<defs id="Markers">
		<g id="lend13">
			<path d="M 3 1 L 0 0 L 3 -1 L 3 1 " style="stroke:none"/>
		</g>
		<marker id="mrkr13-129" class="st13" v:arrowType="13" v:arrowSize="2" v:setback="6.2" refX="-6.2" orient="auto"
				markerUnits="strokeWidth" overflow="visible">
			<use xlink:href="#lend13" transform="scale(-2.12,-2.12) "/>
		</marker>
	</defs>
	<defs id="Filters">
		<filter id="filter_2">
			<feGaussianBlur stdDeviation="2"/>
		</filter>
	</defs>
	<g v:mID="0" v:index="1" v:groupContext="foregroundPage">
		<v:userDefs>
			<v:ud v:nameU="msvThemeOrder" v:val="VT0(0):26"/>
		</v:userDefs>
		<title>页-1</title>
		<v:pageProperties v:drawingScale="0.0393701" v:pageScale="0.0393701" v:drawingUnits="24" v:shadowOffsetX="8.50394"
				v:shadowOffsetY="-8.50394"/>
		<g id="shape2-1" v:mID="2" v:groupContext="shape" transform="translate(191.483,-212.128)">
			<title>圆角矩形</title>
			<v:userDefs>
				<v:ud v:nameU="CTypeTopLeftSnip" v:prompt="" v:val="VT0(0):5"/>
				<v:ud v:nameU="CTypeTopRightSnip" v:prompt="" v:val="VT0(0):5"/>
				<v:ud v:nameU="CTypeBotLeftSnip" v:prompt="" v:val="VT0(0):5"/>
				<v:ud v:nameU="CTypeBotRightSnip" v:prompt="" v:val="VT0(0):5"/>
				<v:ud v:nameU="CornerLockHoriz" v:prompt="" v:val="VT0(1):5"/>
				<v:ud v:nameU="CornerLockVert" v:prompt="" v:val="VT0(1):5"/>
				<v:ud v:nameU="CornerLockDiag" v:prompt="" v:val="VT0(0):5"/>
				<v:ud v:nameU="TopLeftOffset" v:prompt="" v:val="VT0(0.15748031496063):24"/>
				<v:ud v:nameU="TopRightOffset" v:prompt="" v:val="VT0(0.15748031496063):24"/>
				<v:ud v:nameU="BotLeftOffset" v:prompt="" v:val="VT0(0.15748031496063):24"/>
				<v:ud v:nameU="BotRightOffset" v:prompt="" v:val="VT0(0.15748031496063):24"/>
				<v:ud v:nameU="visVersion" v:prompt="" v:val="VT0(15):26"/>
				<v:ud v:nameU="TopLeftOffset" v:prompt="" v:val="VT0(0.047244094488189):1"/>
				<v:ud v:nameU="TopRightOffset" v:prompt="" v:val="VT0(0.047244094488189):1"/>
				<v:ud v:nameU="BotLeftOffset" v:prompt="" v:val="VT0(0.047244094488189):1"/>
				<v:ud v:nameU="BotRightOffset" v:prompt="" v:val="VT0(0.047244094488189):1"/>
			</v:userDefs>
			<g id="shadow2-2" v:groupContext="shadow" v:shadowOffsetX="0.345598" v:shadowOffsetY="-1.97279" v:shadowType="1"
					transform="matrix(1,0,0,1,0.345598,1.97279)" class="st1">
				<path d="M3.4 310.67 L30.61 310.67 A3.40152 3.40152 -180 0 0 34.02 307.27 L34.02 234.98 A3.40152 3.40152 -180 0 0
							 30.61 231.57 L3.4 231.57 A3.40152 3.40152 -180 0 0 -0 234.98 L0 307.27 A3.40152 3.40152 -180 0 0 3.4
							 310.67 Z" class="st2"/>
			</g>
			<path d="M3.4 310.67 L30.61 310.67 A3.40152 3.40152 -180 0 0 34.02 307.27 L34.02 234.98 A3.40152 3.40152 -180 0 0 30.61
						 231.57 L3.4 231.57 A3.40152 3.40152 -180 0 0 -0 234.98 L0 307.27 A3.40152 3.40152 -180 0 0 3.4 310.67 Z"
					class="st3"/>
		</g>
		<g id="shape3-6" v:mID="3" v:groupContext="shape" transform="translate(290.28,-212.128)">
			<title>圆角矩形.3</title>
			<v:userDefs>
				<v:ud v:nameU="CTypeTopLeftSnip" v:prompt="" v:val="VT0(0):5"/>
				<v:ud v:nameU="CTypeTopRightSnip" v:prompt="" v:val="VT0(0):5"/>
				<v:ud v:nameU="CTypeBotLeftSnip" v:prompt="" v:val="VT0(0):5"/>
				<v:ud v:nameU="CTypeBotRightSnip" v:prompt="" v:val="VT0(0):5"/>
				<v:ud v:nameU="CornerLockHoriz" v:prompt="" v:val="VT0(1):5"/>
				<v:ud v:nameU="CornerLockVert" v:prompt="" v:val="VT0(1):5"/>
				<v:ud v:nameU="CornerLockDiag" v:prompt="" v:val="VT0(0):5"/>
				<v:ud v:nameU="TopLeftOffset" v:prompt="" v:val="VT0(0.15748031496063):24"/>
				<v:ud v:nameU="TopRightOffset" v:prompt="" v:val="VT0(0.15748031496063):24"/>
				<v:ud v:nameU="BotLeftOffset" v:prompt="" v:val="VT0(0.15748031496063):24"/>
				<v:ud v:nameU="BotRightOffset" v:prompt="" v:val="VT0(0.15748031496063):24"/>
				<v:ud v:nameU="visVersion" v:prompt="" v:val="VT0(15):26"/>
				<v:ud v:nameU="TopLeftOffset" v:prompt="" v:val="VT0(0.047244094488189):1"/>
				<v:ud v:nameU="TopRightOffset" v:prompt="" v:val="VT0(0.047244094488189):1"/>
				<v:ud v:nameU="BotLeftOffset" v:prompt="" v:val="VT0(0.047244094488189):1"/>
				<v:ud v:nameU="BotRightOffset" v:prompt="" v:val="VT0(0.047244094488189):1"/>
			</v:userDefs>
			<g id="shadow3-7" v:groupContext="shadow" v:shadowOffsetX="0.345598" v:shadowOffsetY="-1.97279" v:shadowType="1"
					transform="matrix(1,0,0,1,0.345598,1.97279)" class="st1">
				<path d="M3.4 310.67 L30.61 310.67 A3.40152 3.40152 -180 0 0 34.02 307.27 L34.02 234.98 A3.40152 3.40152 -180 0 0
							 30.61 231.57 L3.4 231.57 A3.40152 3.40152 -180 0 0 -0 234.98 L0 307.27 A3.40152 3.40152 -180 0 0 3.4
							 310.67 Z" class="st2"/>
			</g>
			<path d="M3.4 310.67 L30.61 310.67 A3.40152 3.40152 -180 0 0 34.02 307.27 L34.02 234.98 A3.40152 3.40152 -180 0 0 30.61
						 231.57 L3.4 231.57 A3.40152 3.40152 -180 0 0 -0 234.98 L0 307.27 A3.40152 3.40152 -180 0 0 3.4 310.67 Z"
					class="st4"/>
		</g>
		<g id="shape4-11" v:mID="4" v:groupContext="shape" transform="translate(240.882,-212.128)">
			<title>圆角矩形.4</title>
			<v:userDefs>
				<v:ud v:nameU="CTypeTopLeftSnip" v:prompt="" v:val="VT0(0):5"/>
				<v:ud v:nameU="CTypeTopRightSnip" v:prompt="" v:val="VT0(0):5"/>
				<v:ud v:nameU="CTypeBotLeftSnip" v:prompt="" v:val="VT0(0):5"/>
				<v:ud v:nameU="CTypeBotRightSnip" v:prompt="" v:val="VT0(0):5"/>
				<v:ud v:nameU="CornerLockHoriz" v:prompt="" v:val="VT0(1):5"/>
				<v:ud v:nameU="CornerLockVert" v:prompt="" v:val="VT0(1):5"/>
				<v:ud v:nameU="CornerLockDiag" v:prompt="" v:val="VT0(0):5"/>
				<v:ud v:nameU="TopLeftOffset" v:prompt="" v:val="VT0(0.15748031496063):24"/>
				<v:ud v:nameU="TopRightOffset" v:prompt="" v:val="VT0(0.15748031496063):24"/>
				<v:ud v:nameU="BotLeftOffset" v:prompt="" v:val="VT0(0.15748031496063):24"/>
				<v:ud v:nameU="BotRightOffset" v:prompt="" v:val="VT0(0.15748031496063):24"/>
				<v:ud v:nameU="visVersion" v:prompt="" v:val="VT0(15):26"/>
				<v:ud v:nameU="TopLeftOffset" v:prompt="" v:val="VT0(0.047244094488189):1"/>
				<v:ud v:nameU="TopRightOffset" v:prompt="" v:val="VT0(0.047244094488189):1"/>
				<v:ud v:nameU="BotLeftOffset" v:prompt="" v:val="VT0(0.047244094488189):1"/>
				<v:ud v:nameU="BotRightOffset" v:prompt="" v:val="VT0(0.047244094488189):1"/>
			</v:userDefs>
			<g id="shadow4-12" v:groupContext="shadow" v:shadowOffsetX="0.345598" v:shadowOffsetY="-1.97279" v:shadowType="1"
					transform="matrix(1,0,0,1,0.345598,1.97279)" class="st1">
				<path d="M3.4 310.67 L30.61 310.67 A3.40152 3.40152 -180 0 0 34.02 307.27 L34.02 234.98 A3.40152 3.40152 -180 0 0
							 30.61 231.57 L3.4 231.57 A3.40152 3.40152 -180 0 0 -0 234.98 L0 307.27 A3.40152 3.40152 -180 0 0 3.4
							 310.67 Z" class="st2"/>
			</g>
			<path d="M3.4 310.67 L30.61 310.67 A3.40152 3.40152 -180 0 0 34.02 307.27 L34.02 234.98 A3.40152 3.40152 -180 0 0 30.61
						 231.57 L3.4 231.57 A3.40152 3.40152 -180 0 0 -0 234.98 L0 307.27 A3.40152 3.40152 -180 0 0 3.4 310.67 Z"
					class="st4"/>
		</g>
		<g id="shape5-16" v:mID="5" v:groupContext="shape" transform="translate(339.678,-212.128)">
			<title>圆角矩形.5</title>
			<v:userDefs>
				<v:ud v:nameU="CTypeTopLeftSnip" v:prompt="" v:val="VT0(0):5"/>
				<v:ud v:nameU="CTypeTopRightSnip" v:prompt="" v:val="VT0(0):5"/>
				<v:ud v:nameU="CTypeBotLeftSnip" v:prompt="" v:val="VT0(0):5"/>
				<v:ud v:nameU="CTypeBotRightSnip" v:prompt="" v:val="VT0(0):5"/>
				<v:ud v:nameU="CornerLockHoriz" v:prompt="" v:val="VT0(1):5"/>
				<v:ud v:nameU="CornerLockVert" v:prompt="" v:val="VT0(1):5"/>
				<v:ud v:nameU="CornerLockDiag" v:prompt="" v:val="VT0(0):5"/>
				<v:ud v:nameU="TopLeftOffset" v:prompt="" v:val="VT0(0.15748031496063):24"/>
				<v:ud v:nameU="TopRightOffset" v:prompt="" v:val="VT0(0.15748031496063):24"/>
				<v:ud v:nameU="BotLeftOffset" v:prompt="" v:val="VT0(0.15748031496063):24"/>
				<v:ud v:nameU="BotRightOffset" v:prompt="" v:val="VT0(0.15748031496063):24"/>
				<v:ud v:nameU="visVersion" v:prompt="" v:val="VT0(15):26"/>
				<v:ud v:nameU="TopLeftOffset" v:prompt="" v:val="VT0(0.047244094488189):1"/>
				<v:ud v:nameU="TopRightOffset" v:prompt="" v:val="VT0(0.047244094488189):1"/>
				<v:ud v:nameU="BotLeftOffset" v:prompt="" v:val="VT0(0.047244094488189):1"/>
				<v:ud v:nameU="BotRightOffset" v:prompt="" v:val="VT0(0.047244094488189):1"/>
			</v:userDefs>
			<g id="shadow5-17" v:groupContext="shadow" v:shadowOffsetX="0.345598" v:shadowOffsetY="-1.97279" v:shadowType="1"
					transform="matrix(1,0,0,1,0.345598,1.97279)" class="st1">
				<path d="M3.4 310.67 L30.61 310.67 A3.40152 3.40152 -180 0 0 34.02 307.27 L34.02 234.98 A3.40152 3.40152 -180 0 0
							 30.61 231.57 L3.4 231.57 A3.40152 3.40152 -180 0 0 -0 234.98 L0 307.27 A3.40152 3.40152 -180 0 0 3.4
							 310.67 Z" class="st2"/>
			</g>
			<path d="M3.4 310.67 L30.61 310.67 A3.40152 3.40152 -180 0 0 34.02 307.27 L34.02 234.98 A3.40152 3.40152 -180 0 0 30.61
						 231.57 L3.4 231.57 A3.40152 3.40152 -180 0 0 -0 234.98 L0 307.27 A3.40152 3.40152 -180 0 0 3.4 310.67 Z"
					class="st4"/>
		</g>
		<g id="shape6-21" v:mID="6" v:groupContext="shape" transform="translate(92.2705,-117.738)">
			<title>圆角矩形.6</title>
			<v:userDefs>
				<v:ud v:nameU="CTypeTopLeftSnip" v:prompt="" v:val="VT0(0):5"/>
				<v:ud v:nameU="CTypeTopRightSnip" v:prompt="" v:val="VT0(0):5"/>
				<v:ud v:nameU="CTypeBotLeftSnip" v:prompt="" v:val="VT0(0):5"/>
				<v:ud v:nameU="CTypeBotRightSnip" v:prompt="" v:val="VT0(0):5"/>
				<v:ud v:nameU="CornerLockHoriz" v:prompt="" v:val="VT0(1):5"/>
				<v:ud v:nameU="CornerLockVert" v:prompt="" v:val="VT0(1):5"/>
				<v:ud v:nameU="CornerLockDiag" v:prompt="" v:val="VT0(0):5"/>
				<v:ud v:nameU="TopLeftOffset" v:prompt="" v:val="VT0(0.15748031496063):24"/>
				<v:ud v:nameU="TopRightOffset" v:prompt="" v:val="VT0(0.15748031496063):24"/>
				<v:ud v:nameU="BotLeftOffset" v:prompt="" v:val="VT0(0.15748031496063):24"/>
				<v:ud v:nameU="BotRightOffset" v:prompt="" v:val="VT0(0.15748031496063):24"/>
				<v:ud v:nameU="visVersion" v:prompt="" v:val="VT0(15):26"/>
				<v:ud v:nameU="TopLeftOffset" v:prompt="" v:val="VT0(0.047244094488189):1"/>
				<v:ud v:nameU="TopRightOffset" v:prompt="" v:val="VT0(0.047244094488189):1"/>
				<v:ud v:nameU="BotLeftOffset" v:prompt="" v:val="VT0(0.047244094488189):1"/>
				<v:ud v:nameU="BotRightOffset" v:prompt="" v:val="VT0(0.047244094488189):1"/>
			</v:userDefs>
			<g id="shadow6-22" v:groupContext="shadow" v:shadowOffsetX="0.345598" v:shadowOffsetY="-1.97279" v:shadowType="1"
					transform="matrix(1,0,0,1,0.345598,1.97279)" class="st1">
				<path d="M3.4 310.67 L30.61 310.67 A3.40152 3.40152 -180 0 0 34.02 307.27 L34.02 234.98 A3.40152 3.40152 -180 0 0
							 30.61 231.57 L3.4 231.57 A3.40152 3.40152 -180 0 0 -0 234.98 L0 307.27 A3.40152 3.40152 -180 0 0 3.4
							 310.67 Z" class="st2"/>
			</g>
			<path d="M3.4 310.67 L30.61 310.67 A3.40152 3.40152 -180 0 0 34.02 307.27 L34.02 234.98 A3.40152 3.40152 -180 0 0 30.61
						 231.57 L3.4 231.57 A3.40152 3.40152 -180 0 0 -0 234.98 L0 307.27 A3.40152 3.40152 -180 0 0 3.4 310.67 Z"
					class="st5"/>
		</g>
		<g id="shape7-26" v:mID="7" v:groupContext="shape" transform="translate(191.067,-117.738)">
			<title>圆角矩形.7</title>
			<v:userDefs>
				<v:ud v:nameU="CTypeTopLeftSnip" v:prompt="" v:val="VT0(0):5"/>
				<v:ud v:nameU="CTypeTopRightSnip" v:prompt="" v:val="VT0(0):5"/>
				<v:ud v:nameU="CTypeBotLeftSnip" v:prompt="" v:val="VT0(0):5"/>
				<v:ud v:nameU="CTypeBotRightSnip" v:prompt="" v:val="VT0(0):5"/>
				<v:ud v:nameU="CornerLockHoriz" v:prompt="" v:val="VT0(1):5"/>
				<v:ud v:nameU="CornerLockVert" v:prompt="" v:val="VT0(1):5"/>
				<v:ud v:nameU="CornerLockDiag" v:prompt="" v:val="VT0(0):5"/>
				<v:ud v:nameU="TopLeftOffset" v:prompt="" v:val="VT0(0.15748031496063):24"/>
				<v:ud v:nameU="TopRightOffset" v:prompt="" v:val="VT0(0.15748031496063):24"/>
				<v:ud v:nameU="BotLeftOffset" v:prompt="" v:val="VT0(0.15748031496063):24"/>
				<v:ud v:nameU="BotRightOffset" v:prompt="" v:val="VT0(0.15748031496063):24"/>
				<v:ud v:nameU="visVersion" v:prompt="" v:val="VT0(15):26"/>
				<v:ud v:nameU="TopLeftOffset" v:prompt="" v:val="VT0(0.047244094488189):1"/>
				<v:ud v:nameU="TopRightOffset" v:prompt="" v:val="VT0(0.047244094488189):1"/>
				<v:ud v:nameU="BotLeftOffset" v:prompt="" v:val="VT0(0.047244094488189):1"/>
				<v:ud v:nameU="BotRightOffset" v:prompt="" v:val="VT0(0.047244094488189):1"/>
			</v:userDefs>
			<g id="shadow7-27" v:groupContext="shadow" v:shadowOffsetX="0.345598" v:shadowOffsetY="-1.97279" v:shadowType="1"
					transform="matrix(1,0,0,1,0.345598,1.97279)" class="st1">
				<path d="M3.4 310.67 L30.61 310.67 A3.40152 3.40152 -180 0 0 34.02 307.27 L34.02 234.98 A3.40152 3.40152 -180 0 0
							 30.61 231.57 L3.4 231.57 A3.40152 3.40152 -180 0 0 -0 234.98 L0 307.27 A3.40152 3.40152 -180 0 0 3.4
							 310.67 Z" class="st2"/>
			</g>
			<path d="M3.4 310.67 L30.61 310.67 A3.40152 3.40152 -180 0 0 34.02 307.27 L34.02 234.98 A3.40152 3.40152 -180 0 0 30.61
						 231.57 L3.4 231.57 A3.40152 3.40152 -180 0 0 -0 234.98 L0 307.27 A3.40152 3.40152 -180 0 0 3.4 310.67 Z"
					class="st5"/>
		</g>
		<g id="shape8-31" v:mID="8" v:groupContext="shape" transform="translate(141.669,-117.738)">
			<title>圆角矩形.8</title>
			<v:userDefs>
				<v:ud v:nameU="CTypeTopLeftSnip" v:prompt="" v:val="VT0(0):5"/>
				<v:ud v:nameU="CTypeTopRightSnip" v:prompt="" v:val="VT0(0):5"/>
				<v:ud v:nameU="CTypeBotLeftSnip" v:prompt="" v:val="VT0(0):5"/>
				<v:ud v:nameU="CTypeBotRightSnip" v:prompt="" v:val="VT0(0):5"/>
				<v:ud v:nameU="CornerLockHoriz" v:prompt="" v:val="VT0(1):5"/>
				<v:ud v:nameU="CornerLockVert" v:prompt="" v:val="VT0(1):5"/>
				<v:ud v:nameU="CornerLockDiag" v:prompt="" v:val="VT0(0):5"/>
				<v:ud v:nameU="TopLeftOffset" v:prompt="" v:val="VT0(0.15748031496063):24"/>
				<v:ud v:nameU="TopRightOffset" v:prompt="" v:val="VT0(0.15748031496063):24"/>
				<v:ud v:nameU="BotLeftOffset" v:prompt="" v:val="VT0(0.15748031496063):24"/>
				<v:ud v:nameU="BotRightOffset" v:prompt="" v:val="VT0(0.15748031496063):24"/>
				<v:ud v:nameU="visVersion" v:prompt="" v:val="VT0(15):26"/>
				<v:ud v:nameU="TopLeftOffset" v:prompt="" v:val="VT0(0.047244094488189):1"/>
				<v:ud v:nameU="TopRightOffset" v:prompt="" v:val="VT0(0.047244094488189):1"/>
				<v:ud v:nameU="BotLeftOffset" v:prompt="" v:val="VT0(0.047244094488189):1"/>
				<v:ud v:nameU="BotRightOffset" v:prompt="" v:val="VT0(0.047244094488189):1"/>
			</v:userDefs>
			<g id="shadow8-32" v:groupContext="shadow" v:shadowOffsetX="0.345598" v:shadowOffsetY="-1.97279" v:shadowType="1"
					transform="matrix(1,0,0,1,0.345598,1.97279)" class="st1">
				<path d="M3.4 310.67 L30.61 310.67 A3.40152 3.40152 -180 0 0 34.02 307.27 L34.02 234.98 A3.40152 3.40152 -180 0 0
							 30.61 231.57 L3.4 231.57 A3.40152 3.40152 -180 0 0 -0 234.98 L0 307.27 A3.40152 3.40152 -180 0 0 3.4
							 310.67 Z" class="st2"/>
			</g>
			<path d="M3.4 310.67 L30.61 310.67 A3.40152 3.40152 -180 0 0 34.02 307.27 L34.02 234.98 A3.40152 3.40152 -180 0 0 30.61
						 231.57 L3.4 231.57 A3.40152 3.40152 -180 0 0 -0 234.98 L0 307.27 A3.40152 3.40152 -180 0 0 3.4 310.67 Z"
					class="st5"/>
		</g>
		<g id="shape9-36" v:mID="9" v:groupContext="shape" transform="translate(240.466,-117.738)">
			<title>圆角矩形.9</title>
			<v:userDefs>
				<v:ud v:nameU="CTypeTopLeftSnip" v:prompt="" v:val="VT0(0):5"/>
				<v:ud v:nameU="CTypeTopRightSnip" v:prompt="" v:val="VT0(0):5"/>
				<v:ud v:nameU="CTypeBotLeftSnip" v:prompt="" v:val="VT0(0):5"/>
				<v:ud v:nameU="CTypeBotRightSnip" v:prompt="" v:val="VT0(0):5"/>
				<v:ud v:nameU="CornerLockHoriz" v:prompt="" v:val="VT0(1):5"/>
				<v:ud v:nameU="CornerLockVert" v:prompt="" v:val="VT0(1):5"/>
				<v:ud v:nameU="CornerLockDiag" v:prompt="" v:val="VT0(0):5"/>
				<v:ud v:nameU="TopLeftOffset" v:prompt="" v:val="VT0(0.15748031496063):24"/>
				<v:ud v:nameU="TopRightOffset" v:prompt="" v:val="VT0(0.15748031496063):24"/>
				<v:ud v:nameU="BotLeftOffset" v:prompt="" v:val="VT0(0.15748031496063):24"/>
				<v:ud v:nameU="BotRightOffset" v:prompt="" v:val="VT0(0.15748031496063):24"/>
				<v:ud v:nameU="visVersion" v:prompt="" v:val="VT0(15):26"/>
				<v:ud v:nameU="TopLeftOffset" v:prompt="" v:val="VT0(0.047244094488189):1"/>
				<v:ud v:nameU="TopRightOffset" v:prompt="" v:val="VT0(0.047244094488189):1"/>
				<v:ud v:nameU="BotLeftOffset" v:prompt="" v:val="VT0(0.047244094488189):1"/>
				<v:ud v:nameU="BotRightOffset" v:prompt="" v:val="VT0(0.047244094488189):1"/>
			</v:userDefs>
			<g id="shadow9-37" v:groupContext="shadow" v:shadowOffsetX="0.345598" v:shadowOffsetY="-1.97279" v:shadowType="1"
					transform="matrix(1,0,0,1,0.345598,1.97279)" class="st1">
				<path d="M3.4 310.67 L30.61 310.67 A3.40152 3.40152 -180 0 0 34.02 307.27 L34.02 234.98 A3.40152 3.40152 -180 0 0
							 30.61 231.57 L3.4 231.57 A3.40152 3.40152 -180 0 0 -0 234.98 L0 307.27 A3.40152 3.40152 -180 0 0 3.4
							 310.67 Z" class="st2"/>
			</g>
			<path d="M3.4 310.67 L30.61 310.67 A3.40152 3.40152 -180 0 0 34.02 307.27 L34.02 234.98 A3.40152 3.40152 -180 0 0 30.61
						 231.57 L3.4 231.57 A3.40152 3.40152 -180 0 0 -0 234.98 L0 307.27 A3.40152 3.40152 -180 0 0 3.4 310.67 Z"
					class="st5"/>
		</g>
		<g id="shape10-41" v:mID="10" v:groupContext="shape" transform="translate(191.483,-23.3478)">
			<title>圆角矩形.10</title>
			<v:userDefs>
				<v:ud v:nameU="CTypeTopLeftSnip" v:prompt="" v:val="VT0(0):5"/>
				<v:ud v:nameU="CTypeTopRightSnip" v:prompt="" v:val="VT0(0):5"/>
				<v:ud v:nameU="CTypeBotLeftSnip" v:prompt="" v:val="VT0(0):5"/>
				<v:ud v:nameU="CTypeBotRightSnip" v:prompt="" v:val="VT0(0):5"/>
				<v:ud v:nameU="CornerLockHoriz" v:prompt="" v:val="VT0(1):5"/>
				<v:ud v:nameU="CornerLockVert" v:prompt="" v:val="VT0(1):5"/>
				<v:ud v:nameU="CornerLockDiag" v:prompt="" v:val="VT0(0):5"/>
				<v:ud v:nameU="TopLeftOffset" v:prompt="" v:val="VT0(0.15748031496063):24"/>
				<v:ud v:nameU="TopRightOffset" v:prompt="" v:val="VT0(0.15748031496063):24"/>
				<v:ud v:nameU="BotLeftOffset" v:prompt="" v:val="VT0(0.15748031496063):24"/>
				<v:ud v:nameU="BotRightOffset" v:prompt="" v:val="VT0(0.15748031496063):24"/>
				<v:ud v:nameU="visVersion" v:prompt="" v:val="VT0(15):26"/>
				<v:ud v:nameU="TopLeftOffset" v:prompt="" v:val="VT0(0.047244094488189):1"/>
				<v:ud v:nameU="TopRightOffset" v:prompt="" v:val="VT0(0.047244094488189):1"/>
				<v:ud v:nameU="BotLeftOffset" v:prompt="" v:val="VT0(0.047244094488189):1"/>
				<v:ud v:nameU="BotRightOffset" v:prompt="" v:val="VT0(0.047244094488189):1"/>
			</v:userDefs>
			<g id="shadow10-42" v:groupContext="shadow" v:shadowOffsetX="0.345598" v:shadowOffsetY="-1.97279" v:shadowType="1"
					transform="matrix(1,0,0,1,0.345598,1.97279)" class="st1">
				<path d="M3.4 310.67 L30.61 310.67 A3.40152 3.40152 -180 0 0 34.02 307.27 L34.02 234.98 A3.40152 3.40152 -180 0 0
							 30.61 231.57 L3.4 231.57 A3.40152 3.40152 -180 0 0 -0 234.98 L0 307.27 A3.40152 3.40152 -180 0 0 3.4
							 310.67 Z" class="st2"/>
			</g>
			<path d="M3.4 310.67 L30.61 310.67 A3.40152 3.40152 -180 0 0 34.02 307.27 L34.02 234.98 A3.40152 3.40152 -180 0 0 30.61
						 231.57 L3.4 231.57 A3.40152 3.40152 -180 0 0 -0 234.98 L0 307.27 A3.40152 3.40152 -180 0 0 3.4 310.67 Z"
					class="st3"/>
		</g>
		<g id="shape11-46" v:mID="11" v:groupContext="shape" transform="translate(290.28,-23.3478)">
			<title>圆角矩形.11</title>
			<v:userDefs>
				<v:ud v:nameU="CTypeTopLeftSnip" v:prompt="" v:val="VT0(0):5"/>
				<v:ud v:nameU="CTypeTopRightSnip" v:prompt="" v:val="VT0(0):5"/>
				<v:ud v:nameU="CTypeBotLeftSnip" v:prompt="" v:val="VT0(0):5"/>
				<v:ud v:nameU="CTypeBotRightSnip" v:prompt="" v:val="VT0(0):5"/>
				<v:ud v:nameU="CornerLockHoriz" v:prompt="" v:val="VT0(1):5"/>
				<v:ud v:nameU="CornerLockVert" v:prompt="" v:val="VT0(1):5"/>
				<v:ud v:nameU="CornerLockDiag" v:prompt="" v:val="VT0(0):5"/>
				<v:ud v:nameU="TopLeftOffset" v:prompt="" v:val="VT0(0.15748031496063):24"/>
				<v:ud v:nameU="TopRightOffset" v:prompt="" v:val="VT0(0.15748031496063):24"/>
				<v:ud v:nameU="BotLeftOffset" v:prompt="" v:val="VT0(0.15748031496063):24"/>
				<v:ud v:nameU="BotRightOffset" v:prompt="" v:val="VT0(0.15748031496063):24"/>
				<v:ud v:nameU="visVersion" v:prompt="" v:val="VT0(15):26"/>
				<v:ud v:nameU="TopLeftOffset" v:prompt="" v:val="VT0(0.047244094488189):1"/>
				<v:ud v:nameU="TopRightOffset" v:prompt="" v:val="VT0(0.047244094488189):1"/>
				<v:ud v:nameU="BotLeftOffset" v:prompt="" v:val="VT0(0.047244094488189):1"/>
				<v:ud v:nameU="BotRightOffset" v:prompt="" v:val="VT0(0.047244094488189):1"/>
			</v:userDefs>
			<g id="shadow11-47" v:groupContext="shadow" v:shadowOffsetX="0.345598" v:shadowOffsetY="-1.97279" v:shadowType="1"
					transform="matrix(1,0,0,1,0.345598,1.97279)" class="st1">
				<path d="M3.4 310.67 L30.61 310.67 A3.40152 3.40152 -180 0 0 34.02 307.27 L34.02 234.98 A3.40152 3.40152 -180 0 0
							 30.61 231.57 L3.4 231.57 A3.40152 3.40152 -180 0 0 -0 234.98 L0 307.27 A3.40152 3.40152 -180 0 0 3.4
							 310.67 Z" class="st2"/>
			</g>
			<path d="M3.4 310.67 L30.61 310.67 A3.40152 3.40152 -180 0 0 34.02 307.27 L34.02 234.98 A3.40152 3.40152 -180 0 0 30.61
						 231.57 L3.4 231.57 A3.40152 3.40152 -180 0 0 -0 234.98 L0 307.27 A3.40152 3.40152 -180 0 0 3.4 310.67 Z"
					class="st4"/>
		</g>
		<g id="shape12-51" v:mID="12" v:groupContext="shape" transform="translate(240.882,-23.3478)">
			<title>圆角矩形.12</title>
			<v:userDefs>
				<v:ud v:nameU="CTypeTopLeftSnip" v:prompt="" v:val="VT0(0):5"/>
				<v:ud v:nameU="CTypeTopRightSnip" v:prompt="" v:val="VT0(0):5"/>
				<v:ud v:nameU="CTypeBotLeftSnip" v:prompt="" v:val="VT0(0):5"/>
				<v:ud v:nameU="CTypeBotRightSnip" v:prompt="" v:val="VT0(0):5"/>
				<v:ud v:nameU="CornerLockHoriz" v:prompt="" v:val="VT0(1):5"/>
				<v:ud v:nameU="CornerLockVert" v:prompt="" v:val="VT0(1):5"/>
				<v:ud v:nameU="CornerLockDiag" v:prompt="" v:val="VT0(0):5"/>
				<v:ud v:nameU="TopLeftOffset" v:prompt="" v:val="VT0(0.15748031496063):24"/>
				<v:ud v:nameU="TopRightOffset" v:prompt="" v:val="VT0(0.15748031496063):24"/>
				<v:ud v:nameU="BotLeftOffset" v:prompt="" v:val="VT0(0.15748031496063):24"/>
				<v:ud v:nameU="BotRightOffset" v:prompt="" v:val="VT0(0.15748031496063):24"/>
				<v:ud v:nameU="visVersion" v:prompt="" v:val="VT0(15):26"/>
				<v:ud v:nameU="TopLeftOffset" v:prompt="" v:val="VT0(0.047244094488189):1"/>
				<v:ud v:nameU="TopRightOffset" v:prompt="" v:val="VT0(0.047244094488189):1"/>
				<v:ud v:nameU="BotLeftOffset" v:prompt="" v:val="VT0(0.047244094488189):1"/>
				<v:ud v:nameU="BotRightOffset" v:prompt="" v:val="VT0(0.047244094488189):1"/>
			</v:userDefs>
			<g id="shadow12-52" v:groupContext="shadow" v:shadowOffsetX="0.345598" v:shadowOffsetY="-1.97279" v:shadowType="1"
					transform="matrix(1,0,0,1,0.345598,1.97279)" class="st1">
				<path d="M3.4 310.67 L30.61 310.67 A3.40152 3.40152 -180 0 0 34.02 307.27 L34.02 234.98 A3.40152 3.40152 -180 0 0
							 30.61 231.57 L3.4 231.57 A3.40152 3.40152 -180 0 0 -0 234.98 L0 307.27 A3.40152 3.40152 -180 0 0 3.4
							 310.67 Z" class="st2"/>
			</g>
			<path d="M3.4 310.67 L30.61 310.67 A3.40152 3.40152 -180 0 0 34.02 307.27 L34.02 234.98 A3.40152 3.40152 -180 0 0 30.61
						 231.57 L3.4 231.57 A3.40152 3.40152 -180 0 0 -0 234.98 L0 307.27 A3.40152 3.40152 -180 0 0 3.4 310.67 Z"
					class="st4"/>
		</g>
		<g id="shape13-56" v:mID="13" v:groupContext="shape" transform="translate(339.678,-23.3478)">
			<title>圆角矩形.13</title>
			<v:userDefs>
				<v:ud v:nameU="CTypeTopLeftSnip" v:prompt="" v:val="VT0(0):5"/>
				<v:ud v:nameU="CTypeTopRightSnip" v:prompt="" v:val="VT0(0):5"/>
				<v:ud v:nameU="CTypeBotLeftSnip" v:prompt="" v:val="VT0(0):5"/>
				<v:ud v:nameU="CTypeBotRightSnip" v:prompt="" v:val="VT0(0):5"/>
				<v:ud v:nameU="CornerLockHoriz" v:prompt="" v:val="VT0(1):5"/>
				<v:ud v:nameU="CornerLockVert" v:prompt="" v:val="VT0(1):5"/>
				<v:ud v:nameU="CornerLockDiag" v:prompt="" v:val="VT0(0):5"/>
				<v:ud v:nameU="TopLeftOffset" v:prompt="" v:val="VT0(0.15748031496063):24"/>
				<v:ud v:nameU="TopRightOffset" v:prompt="" v:val="VT0(0.15748031496063):24"/>
				<v:ud v:nameU="BotLeftOffset" v:prompt="" v:val="VT0(0.15748031496063):24"/>
				<v:ud v:nameU="BotRightOffset" v:prompt="" v:val="VT0(0.15748031496063):24"/>
				<v:ud v:nameU="visVersion" v:prompt="" v:val="VT0(15):26"/>
				<v:ud v:nameU="TopLeftOffset" v:prompt="" v:val="VT0(0.047244094488189):1"/>
				<v:ud v:nameU="TopRightOffset" v:prompt="" v:val="VT0(0.047244094488189):1"/>
				<v:ud v:nameU="BotLeftOffset" v:prompt="" v:val="VT0(0.047244094488189):1"/>
				<v:ud v:nameU="BotRightOffset" v:prompt="" v:val="VT0(0.047244094488189):1"/>
			</v:userDefs>
			<g id="shadow13-57" v:groupContext="shadow" v:shadowOffsetX="0.345598" v:shadowOffsetY="-1.97279" v:shadowType="1"
					transform="matrix(1,0,0,1,0.345598,1.97279)" class="st1">
				<path d="M3.4 310.67 L30.61 310.67 A3.40152 3.40152 -180 0 0 34.02 307.27 L34.02 234.98 A3.40152 3.40152 -180 0 0
							 30.61 231.57 L3.4 231.57 A3.40152 3.40152 -180 0 0 -0 234.98 L0 307.27 A3.40152 3.40152 -180 0 0 3.4
							 310.67 Z" class="st2"/>
			</g>
			<path d="M3.4 310.67 L30.61 310.67 A3.40152 3.40152 -180 0 0 34.02 307.27 L34.02 234.98 A3.40152 3.40152 -180 0 0 30.61
						 231.57 L3.4 231.57 A3.40152 3.40152 -180 0 0 -0 234.98 L0 307.27 A3.40152 3.40152 -180 0 0 3.4 310.67 Z"
					class="st4"/>
		</g>
		<g id="shape14-61" v:mID="14" v:groupContext="shape" transform="translate(340.094,-118.111)">
			<title>圆角矩形.14</title>
			<v:userDefs>
				<v:ud v:nameU="CTypeTopLeftSnip" v:prompt="" v:val="VT0(0):5"/>
				<v:ud v:nameU="CTypeTopRightSnip" v:prompt="" v:val="VT0(0):5"/>
				<v:ud v:nameU="CTypeBotLeftSnip" v:prompt="" v:val="VT0(0):5"/>
				<v:ud v:nameU="CTypeBotRightSnip" v:prompt="" v:val="VT0(0):5"/>
				<v:ud v:nameU="CornerLockHoriz" v:prompt="" v:val="VT0(1):5"/>
				<v:ud v:nameU="CornerLockVert" v:prompt="" v:val="VT0(1):5"/>
				<v:ud v:nameU="CornerLockDiag" v:prompt="" v:val="VT0(0):5"/>
				<v:ud v:nameU="TopLeftOffset" v:prompt="" v:val="VT0(0.15748031496063):24"/>
				<v:ud v:nameU="TopRightOffset" v:prompt="" v:val="VT0(0.15748031496063):24"/>
				<v:ud v:nameU="BotLeftOffset" v:prompt="" v:val="VT0(0.15748031496063):24"/>
				<v:ud v:nameU="BotRightOffset" v:prompt="" v:val="VT0(0.15748031496063):24"/>
				<v:ud v:nameU="visVersion" v:prompt="" v:val="VT0(15):26"/>
				<v:ud v:nameU="TopLeftOffset" v:prompt="" v:val="VT0(0.047244094488189):1"/>
				<v:ud v:nameU="TopRightOffset" v:prompt="" v:val="VT0(0.047244094488189):1"/>
				<v:ud v:nameU="BotLeftOffset" v:prompt="" v:val="VT0(0.047244094488189):1"/>
				<v:ud v:nameU="BotRightOffset" v:prompt="" v:val="VT0(0.047244094488189):1"/>
			</v:userDefs>
			<g id="shadow14-62" v:groupContext="shadow" v:shadowOffsetX="0.345598" v:shadowOffsetY="-1.97279" v:shadowType="1"
					transform="matrix(1,0,0,1,0.345598,1.97279)" class="st1">
				<path d="M3.4 310.67 L30.61 310.67 A3.40152 3.40152 -180 0 0 34.02 307.27 L34.02 234.98 A3.40152 3.40152 -180 0 0
							 30.61 231.57 L3.4 231.57 A3.40152 3.40152 -180 0 0 -0 234.98 L0 307.27 A3.40152 3.40152 -180 0 0 3.4
							 310.67 Z" class="st2"/>
			</g>
			<path d="M3.4 310.67 L30.61 310.67 A3.40152 3.40152 -180 0 0 34.02 307.27 L34.02 234.98 A3.40152 3.40152 -180 0 0 30.61
						 231.57 L3.4 231.57 A3.40152 3.40152 -180 0 0 -0 234.98 L0 307.27 A3.40152 3.40152 -180 0 0 3.4 310.67 Z"
					class="st6"/>
		</g>
		<g id="shape15-66" v:mID="15" v:groupContext="shape" transform="translate(290.696,-118.111)">
			<title>圆角矩形.15</title>
			<v:userDefs>
				<v:ud v:nameU="CTypeTopLeftSnip" v:prompt="" v:val="VT0(0):5"/>
				<v:ud v:nameU="CTypeTopRightSnip" v:prompt="" v:val="VT0(0):5"/>
				<v:ud v:nameU="CTypeBotLeftSnip" v:prompt="" v:val="VT0(0):5"/>
				<v:ud v:nameU="CTypeBotRightSnip" v:prompt="" v:val="VT0(0):5"/>
				<v:ud v:nameU="CornerLockHoriz" v:prompt="" v:val="VT0(1):5"/>
				<v:ud v:nameU="CornerLockVert" v:prompt="" v:val="VT0(1):5"/>
				<v:ud v:nameU="CornerLockDiag" v:prompt="" v:val="VT0(0):5"/>
				<v:ud v:nameU="TopLeftOffset" v:prompt="" v:val="VT0(0.15748031496063):24"/>
				<v:ud v:nameU="TopRightOffset" v:prompt="" v:val="VT0(0.15748031496063):24"/>
				<v:ud v:nameU="BotLeftOffset" v:prompt="" v:val="VT0(0.15748031496063):24"/>
				<v:ud v:nameU="BotRightOffset" v:prompt="" v:val="VT0(0.15748031496063):24"/>
				<v:ud v:nameU="visVersion" v:prompt="" v:val="VT0(15):26"/>
				<v:ud v:nameU="TopLeftOffset" v:prompt="" v:val="VT0(0.047244094488189):1"/>
				<v:ud v:nameU="TopRightOffset" v:prompt="" v:val="VT0(0.047244094488189):1"/>
				<v:ud v:nameU="BotLeftOffset" v:prompt="" v:val="VT0(0.047244094488189):1"/>
				<v:ud v:nameU="BotRightOffset" v:prompt="" v:val="VT0(0.047244094488189):1"/>
			</v:userDefs>
			<g id="shadow15-67" v:groupContext="shadow" v:shadowOffsetX="0.345598" v:shadowOffsetY="-1.97279" v:shadowType="1"
					transform="matrix(1,0,0,1,0.345598,1.97279)" class="st1">
				<path d="M3.4 310.67 L30.61 310.67 A3.40152 3.40152 -180 0 0 34.02 307.27 L34.02 234.98 A3.40152 3.40152 -180 0 0
							 30.61 231.57 L3.4 231.57 A3.40152 3.40152 -180 0 0 -0 234.98 L0 307.27 A3.40152 3.40152 -180 0 0 3.4
							 310.67 Z" class="st2"/>
			</g>
			<path d="M3.4 310.67 L30.61 310.67 A3.40152 3.40152 -180 0 0 34.02 307.27 L34.02 234.98 A3.40152 3.40152 -180 0 0 30.61
						 231.57 L3.4 231.57 A3.40152 3.40152 -180 0 0 -0 234.98 L0 307.27 A3.40152 3.40152 -180 0 0 3.4 310.67 Z"
					class="st6"/>
		</g>
		<g id="shape16-71" v:mID="16" v:groupContext="shape" transform="translate(389.493,-118.111)">
			<title>圆角矩形.16</title>
			<v:userDefs>
				<v:ud v:nameU="CTypeTopLeftSnip" v:prompt="" v:val="VT0(0):5"/>
				<v:ud v:nameU="CTypeTopRightSnip" v:prompt="" v:val="VT0(0):5"/>
				<v:ud v:nameU="CTypeBotLeftSnip" v:prompt="" v:val="VT0(0):5"/>
				<v:ud v:nameU="CTypeBotRightSnip" v:prompt="" v:val="VT0(0):5"/>
				<v:ud v:nameU="CornerLockHoriz" v:prompt="" v:val="VT0(1):5"/>
				<v:ud v:nameU="CornerLockVert" v:prompt="" v:val="VT0(1):5"/>
				<v:ud v:nameU="CornerLockDiag" v:prompt="" v:val="VT0(0):5"/>
				<v:ud v:nameU="TopLeftOffset" v:prompt="" v:val="VT0(0.15748031496063):24"/>
				<v:ud v:nameU="TopRightOffset" v:prompt="" v:val="VT0(0.15748031496063):24"/>
				<v:ud v:nameU="BotLeftOffset" v:prompt="" v:val="VT0(0.15748031496063):24"/>
				<v:ud v:nameU="BotRightOffset" v:prompt="" v:val="VT0(0.15748031496063):24"/>
				<v:ud v:nameU="visVersion" v:prompt="" v:val="VT0(15):26"/>
				<v:ud v:nameU="TopLeftOffset" v:prompt="" v:val="VT0(0.047244094488189):1"/>
				<v:ud v:nameU="TopRightOffset" v:prompt="" v:val="VT0(0.047244094488189):1"/>
				<v:ud v:nameU="BotLeftOffset" v:prompt="" v:val="VT0(0.047244094488189):1"/>
				<v:ud v:nameU="BotRightOffset" v:prompt="" v:val="VT0(0.047244094488189):1"/>
			</v:userDefs>
			<g id="shadow16-72" v:groupContext="shadow" v:shadowOffsetX="0.345598" v:shadowOffsetY="-1.97279" v:shadowType="1"
					transform="matrix(1,0,0,1,0.345598,1.97279)" class="st1">
				<path d="M3.4 310.67 L30.61 310.67 A3.40152 3.40152 -180 0 0 34.02 307.27 L34.02 234.98 A3.40152 3.40152 -180 0 0
							 30.61 231.57 L3.4 231.57 A3.40152 3.40152 -180 0 0 -0 234.98 L0 307.27 A3.40152 3.40152 -180 0 0 3.4
							 310.67 Z" class="st2"/>
			</g>
			<path d="M3.4 310.67 L30.61 310.67 A3.40152 3.40152 -180 0 0 34.02 307.27 L34.02 234.98 A3.40152 3.40152 -180 0 0 30.61
						 231.57 L3.4 231.57 A3.40152 3.40152 -180 0 0 -0 234.98 L0 307.27 A3.40152 3.40152 -180 0 0 3.4 310.67 Z"
					class="st4"/>
		</g>
		<g id="shape17-76" v:mID="17" v:groupContext="shape" transform="translate(807.083,19.4021) rotate(90)">
			<title>圆角矩形.17</title>
			<v:userDefs>
				<v:ud v:nameU="CTypeTopLeftSnip" v:prompt="" v:val="VT0(0):5"/>
				<v:ud v:nameU="CTypeTopRightSnip" v:prompt="" v:val="VT0(0):5"/>
				<v:ud v:nameU="CTypeBotLeftSnip" v:prompt="" v:val="VT0(0):5"/>
				<v:ud v:nameU="CTypeBotRightSnip" v:prompt="" v:val="VT0(0):5"/>
				<v:ud v:nameU="CornerLockHoriz" v:prompt="" v:val="VT0(1):5"/>
				<v:ud v:nameU="CornerLockVert" v:prompt="" v:val="VT0(1):5"/>
				<v:ud v:nameU="CornerLockDiag" v:prompt="" v:val="VT0(0):5"/>
				<v:ud v:nameU="TopLeftOffset" v:prompt="" v:val="VT0(0.15748031496063):24"/>
				<v:ud v:nameU="TopRightOffset" v:prompt="" v:val="VT0(0.15748031496063):24"/>
				<v:ud v:nameU="BotLeftOffset" v:prompt="" v:val="VT0(0.15748031496063):24"/>
				<v:ud v:nameU="BotRightOffset" v:prompt="" v:val="VT0(0.15748031496063):24"/>
				<v:ud v:nameU="visVersion" v:prompt="" v:val="VT0(15):26"/>
				<v:ud v:nameU="TopLeftOffset" v:prompt="" v:val="VT0(0.047244094488189):1"/>
				<v:ud v:nameU="TopRightOffset" v:prompt="" v:val="VT0(0.047244094488189):1"/>
				<v:ud v:nameU="BotLeftOffset" v:prompt="" v:val="VT0(0.047244094488189):1"/>
				<v:ud v:nameU="BotRightOffset" v:prompt="" v:val="VT0(0.047244094488189):1"/>
			</v:userDefs>
			<g id="shadow17-77" v:groupContext="shadow" v:shadowOffsetX="0.345598" v:shadowOffsetY="-1.97279" v:shadowType="1"
					transform="matrix(1,0,0,1,1.97279,-0.345598)" class="st1">
				<path d="M3.4 310.67 L30.61 310.67 A3.40152 3.40152 -180 0 0 34.02 307.27 L34.02 234.98 A3.40152 3.40152 -180 0 0
							 30.61 231.57 L3.4 231.57 A3.40152 3.40152 -180 0 0 -0 234.98 L0 307.27 A3.40152 3.40152 -180 0 0 3.4
							 310.67 Z" class="st2"/>
			</g>
			<path d="M3.4 310.67 L30.61 310.67 A3.40152 3.40152 -180 0 0 34.02 307.27 L34.02 234.98 A3.40152 3.40152 -180 0 0 30.61
						 231.57 L3.4 231.57 A3.40152 3.40152 -180 0 0 -0 234.98 L0 307.27 A3.40152 3.40152 -180 0 0 3.4 310.67 Z"
					class="st5"/>
		</g>
		<g id="shape18-81" v:mID="18" v:groupContext="shape" transform="translate(807.083,79.5655) rotate(90)">
			<title>圆角矩形.18</title>
			<v:userDefs>
				<v:ud v:nameU="CTypeTopLeftSnip" v:prompt="" v:val="VT0(0):5"/>
				<v:ud v:nameU="CTypeTopRightSnip" v:prompt="" v:val="VT0(0):5"/>
				<v:ud v:nameU="CTypeBotLeftSnip" v:prompt="" v:val="VT0(0):5"/>
				<v:ud v:nameU="CTypeBotRightSnip" v:prompt="" v:val="VT0(0):5"/>
				<v:ud v:nameU="CornerLockHoriz" v:prompt="" v:val="VT0(1):5"/>
				<v:ud v:nameU="CornerLockVert" v:prompt="" v:val="VT0(1):5"/>
				<v:ud v:nameU="CornerLockDiag" v:prompt="" v:val="VT0(0):5"/>
				<v:ud v:nameU="TopLeftOffset" v:prompt="" v:val="VT0(0.15748031496063):24"/>
				<v:ud v:nameU="TopRightOffset" v:prompt="" v:val="VT0(0.15748031496063):24"/>
				<v:ud v:nameU="BotLeftOffset" v:prompt="" v:val="VT0(0.15748031496063):24"/>
				<v:ud v:nameU="BotRightOffset" v:prompt="" v:val="VT0(0.15748031496063):24"/>
				<v:ud v:nameU="visVersion" v:prompt="" v:val="VT0(15):26"/>
				<v:ud v:nameU="TopLeftOffset" v:prompt="" v:val="VT0(0.047244094488189):1"/>
				<v:ud v:nameU="TopRightOffset" v:prompt="" v:val="VT0(0.047244094488189):1"/>
				<v:ud v:nameU="BotLeftOffset" v:prompt="" v:val="VT0(0.047244094488189):1"/>
				<v:ud v:nameU="BotRightOffset" v:prompt="" v:val="VT0(0.047244094488189):1"/>
			</v:userDefs>
			<g id="shadow18-82" v:groupContext="shadow" v:shadowOffsetX="0.345598" v:shadowOffsetY="-1.97279" v:shadowType="1"
					transform="matrix(1,0,0,1,1.97279,-0.345598)" class="st1">
				<path d="M3.4 310.67 L30.61 310.67 A3.40152 3.40152 -180 0 0 34.02 307.27 L34.02 234.98 A3.40152 3.40152 -180 0 0
							 30.61 231.57 L3.4 231.57 A3.40152 3.40152 -180 0 0 -0 234.98 L0 307.27 A3.40152 3.40152 -180 0 0 3.4
							 310.67 Z" class="st2"/>
			</g>
			<path d="M3.4 310.67 L30.61 310.67 A3.40152 3.40152 -180 0 0 34.02 307.27 L34.02 234.98 A3.40152 3.40152 -180 0 0 30.61
						 231.57 L3.4 231.57 A3.40152 3.40152 -180 0 0 -0 234.98 L0 307.27 A3.40152 3.40152 -180 0 0 3.4 310.67 Z"
					class="st6"/>
		</g>
		<g id="shape19-86" v:mID="19" v:groupContext="shape" transform="translate(807.083,149.977) rotate(90)">
			<title>圆角矩形.19</title>
			<v:userDefs>
				<v:ud v:nameU="CTypeTopLeftSnip" v:prompt="" v:val="VT0(0):5"/>
				<v:ud v:nameU="CTypeTopRightSnip" v:prompt="" v:val="VT0(0):5"/>
				<v:ud v:nameU="CTypeBotLeftSnip" v:prompt="" v:val="VT0(0):5"/>
				<v:ud v:nameU="CTypeBotRightSnip" v:prompt="" v:val="VT0(0):5"/>
				<v:ud v:nameU="CornerLockHoriz" v:prompt="" v:val="VT0(1):5"/>
				<v:ud v:nameU="CornerLockVert" v:prompt="" v:val="VT0(1):5"/>
				<v:ud v:nameU="CornerLockDiag" v:prompt="" v:val="VT0(0):5"/>
				<v:ud v:nameU="TopLeftOffset" v:prompt="" v:val="VT0(0.15748031496063):24"/>
				<v:ud v:nameU="TopRightOffset" v:prompt="" v:val="VT0(0.15748031496063):24"/>
				<v:ud v:nameU="BotLeftOffset" v:prompt="" v:val="VT0(0.15748031496063):24"/>
				<v:ud v:nameU="BotRightOffset" v:prompt="" v:val="VT0(0.15748031496063):24"/>
				<v:ud v:nameU="visVersion" v:prompt="" v:val="VT0(15):26"/>
				<v:ud v:nameU="TopLeftOffset" v:prompt="" v:val="VT0(0.047244094488189):1"/>
				<v:ud v:nameU="TopRightOffset" v:prompt="" v:val="VT0(0.047244094488189):1"/>
				<v:ud v:nameU="BotLeftOffset" v:prompt="" v:val="VT0(0.047244094488189):1"/>
				<v:ud v:nameU="BotRightOffset" v:prompt="" v:val="VT0(0.047244094488189):1"/>
			</v:userDefs>
			<g id="shadow19-87" v:groupContext="shadow" v:shadowOffsetX="0.345598" v:shadowOffsetY="-1.97279" v:shadowType="1"
					transform="matrix(1,0,0,1,1.97279,-0.345598)" class="st1">
				<path d="M3.4 310.67 L30.61 310.67 A3.40152 3.40152 -180 0 0 34.02 307.27 L34.02 234.98 A3.40152 3.40152 -180 0 0
							 30.61 231.57 L3.4 231.57 A3.40152 3.40152 -180 0 0 -0 234.98 L0 307.27 A3.40152 3.40152 -180 0 0 3.4
							 310.67 Z" class="st2"/>
			</g>
			<path d="M3.4 310.67 L30.61 310.67 A3.40152 3.40152 -180 0 0 34.02 307.27 L34.02 234.98 A3.40152 3.40152 -180 0 0 30.61
						 231.57 L3.4 231.57 A3.40152 3.40152 -180 0 0 -0 234.98 L0 307.27 A3.40152 3.40152 -180 0 0 3.4 310.67 Z"
					class="st3"/>
		</g>
		<g id="shape20-91" v:mID="20" v:groupContext="shape" transform="translate(807.083,220.388) rotate(90)">
			<title>圆角矩形.20</title>
			<v:userDefs>
				<v:ud v:nameU="CTypeTopLeftSnip" v:prompt="" v:val="VT0(0):5"/>
				<v:ud v:nameU="CTypeTopRightSnip" v:prompt="" v:val="VT0(0):5"/>
				<v:ud v:nameU="CTypeBotLeftSnip" v:prompt="" v:val="VT0(0):5"/>
				<v:ud v:nameU="CTypeBotRightSnip" v:prompt="" v:val="VT0(0):5"/>
				<v:ud v:nameU="CornerLockHoriz" v:prompt="" v:val="VT0(1):5"/>
				<v:ud v:nameU="CornerLockVert" v:prompt="" v:val="VT0(1):5"/>
				<v:ud v:nameU="CornerLockDiag" v:prompt="" v:val="VT0(0):5"/>
				<v:ud v:nameU="TopLeftOffset" v:prompt="" v:val="VT0(0.15748031496063):24"/>
				<v:ud v:nameU="TopRightOffset" v:prompt="" v:val="VT0(0.15748031496063):24"/>
				<v:ud v:nameU="BotLeftOffset" v:prompt="" v:val="VT0(0.15748031496063):24"/>
				<v:ud v:nameU="BotRightOffset" v:prompt="" v:val="VT0(0.15748031496063):24"/>
				<v:ud v:nameU="visVersion" v:prompt="" v:val="VT0(15):26"/>
				<v:ud v:nameU="TopLeftOffset" v:prompt="" v:val="VT0(0.047244094488189):1"/>
				<v:ud v:nameU="TopRightOffset" v:prompt="" v:val="VT0(0.047244094488189):1"/>
				<v:ud v:nameU="BotLeftOffset" v:prompt="" v:val="VT0(0.047244094488189):1"/>
				<v:ud v:nameU="BotRightOffset" v:prompt="" v:val="VT0(0.047244094488189):1"/>
			</v:userDefs>
			<g id="shadow20-92" v:groupContext="shadow" v:shadowOffsetX="0.345598" v:shadowOffsetY="-1.97279" v:shadowType="1"
					transform="matrix(1,0,0,1,1.97279,-0.345598)" class="st1">
				<path d="M3.4 310.67 L30.61 310.67 A3.40152 3.40152 -180 0 0 34.02 307.27 L34.02 234.98 A3.40152 3.40152 -180 0 0
							 30.61 231.57 L3.4 231.57 A3.40152 3.40152 -180 0 0 -0 234.98 L0 307.27 A3.40152 3.40152 -180 0 0 3.4
							 310.67 Z" class="st2"/>
			</g>
			<path d="M3.4 310.67 L30.61 310.67 A3.40152 3.40152 -180 0 0 34.02 307.27 L34.02 234.98 A3.40152 3.40152 -180 0 0 30.61
						 231.57 L3.4 231.57 A3.40152 3.40152 -180 0 0 -0 234.98 L0 307.27 A3.40152 3.40152 -180 0 0 3.4 310.67 Z"
					class="st4"/>
		</g>
		<g id="shape21-96" v:mID="21" v:groupContext="shape" transform="translate(474.948,-235.672)">
			<title>工作表.21</title>
			<desc>Conv 3 X 3</desc>
			<v:textBlock v:margins="rect(4,4,4,4)" v:tabSpace="42.5197"/>
			<v:textRect cx="61.014" cy="302.164" width="122.03" height="17.0079"/>
			<rect x="0" y="293.66" width="122.028" height="17.0079" class="st7"/>
			<text x="9.18" y="309.36" class="st8" v:langID="2052"><v:paragraph v:horizAlign="1"/><v:tabList/>Conv 3 X 3</text>		</g>
		<g id="shape23-99" v:mID="23" v:groupContext="shape" transform="translate(497.411,-165.261)">
			<title>工作表.23</title>
			<desc>Linear</desc>
			<v:textBlock v:margins="rect(4,4,4,4)" v:tabSpace="42.5197"/>
			<v:textRect cx="38.5505" cy="297.04" width="77.11" height="27.2557"/>
			<rect x="0" y="283.412" width="77.1011" height="27.2557" class="st7"/>
			<text x="7.86" y="304.24" class="st8" v:langID="2052"><v:paragraph v:horizAlign="1"/><v:tabList/>Linear</text>		</g>
		<g id="shape25-102" v:mID="25" v:groupContext="shape" transform="translate(474.948,-94.8497)">
			<title>工作表.25</title>
			<desc>Conv 3 X 3</desc>
			<v:textBlock v:margins="rect(4,4,4,4)" v:tabSpace="42.5197"/>
			<v:textRect cx="61.014" cy="297.04" width="122.03" height="27.2557"/>
			<rect x="0" y="283.412" width="122.028" height="27.2557" class="st7"/>
			<text x="9.18" y="304.24" class="st8" v:langID="2052"><v:paragraph v:horizAlign="1"/><v:tabList/>Conv 3 X 3</text>		</g>
		<g id="shape26-105" v:mID="26" v:groupContext="shape" transform="translate(474.948,-23.3478)">
			<title>工作表.26</title>
			<desc>Upscale</desc>
			<v:textBlock v:margins="rect(4,4,4,4)" v:tabSpace="42.5197"/>
			<v:textRect cx="61.014" cy="296.494" width="122.03" height="28.3465"/>
			<rect x="0" y="282.321" width="122.028" height="28.3465" class="st7"/>
			<text x="22.02" y="303.69" class="st8" v:langID="2052"><v:paragraph v:horizAlign="1"/><v:tabList/>U<tspan class="st9"
						v:langID="1033">pscale</tspan></text>		</g>
		<g id="shape28-109" v:mID="28" v:groupContext="shape" transform="translate(78.0973,461.925) rotate(180)">
			<title>普通箭头</title>
			<v:userDefs>
				<v:ud v:nameU="visVersion" v:val="VT0(15):26"/>
				<v:ud v:nameU="ArrowType" v:prompt="" v:val="VT0(2):26"/>
			</v:userDefs>
			<g id="shadow28-110" v:groupContext="shadow" v:shadowOffsetX="0.345598" v:shadowOffsetY="-1.97279" v:shadowType="1"
					transform="matrix(1,0,0,1,-0.345598,-1.97279)" class="st1">
				<path d="M0 310.67 L11.34 293.66 L11.34 302.16 L56.69 302.16 L56.69 310.67 L56.69 319.17 L11.34 319.17 L11.34 327.68
							 L0 310.67 Z" class="st10"/>
			</g>
			<path d="M0 310.67 L11.34 293.66 L11.34 302.16 L56.69 302.16 L56.69 310.67 L56.69 319.17 L11.34 319.17 L11.34 327.68
						 L0 310.67 Z" class="st11"/>
		</g>
		<g id="shape29-114" v:mID="29" v:groupContext="shape" transform="translate(123.452,-250.119)">
			<title>普通箭头.29</title>
			<v:userDefs>
				<v:ud v:nameU="visVersion" v:val="VT0(15):26"/>
				<v:ud v:nameU="ArrowType" v:prompt="" v:val="VT0(2):26"/>
			</v:userDefs>
			<g id="shadow29-115" v:groupContext="shadow" v:shadowOffsetX="0.345598" v:shadowOffsetY="-1.97279" v:shadowType="1"
					transform="matrix(1,0,0,1,0.345598,1.97279)" class="st1">
				<path d="M0 310.67 L11.34 293.66 L11.34 302.16 L53.86 302.16 L53.86 310.67 L53.86 319.17 L11.34 319.17 L11.34 327.68
							 L0 310.67 Z" class="st10"/>
			</g>
			<path d="M0 310.67 L11.34 293.66 L11.34 302.16 L53.86 302.16 L53.86 310.67 L53.86 319.17 L11.34 319.17 L11.34 327.68
						 L0 310.67 Z" class="st11"/>
		</g>
		<g id="shape30-119" v:mID="30" v:groupContext="shape" transform="translate(126.286,-63.0328)">
			<title>普通箭头.30</title>
			<v:userDefs>
				<v:ud v:nameU="visVersion" v:val="VT0(15):26"/>
				<v:ud v:nameU="ArrowType" v:prompt="" v:val="VT0(2):26"/>
			</v:userDefs>
			<g id="shadow30-120" v:groupContext="shadow" v:shadowOffsetX="0.345598" v:shadowOffsetY="-1.97279" v:shadowType="1"
					transform="matrix(1,0,0,1,0.345598,1.97279)" class="st1">
				<path d="M0 310.67 L11.34 293.66 L11.34 302.16 L51.02 302.16 L51.02 310.67 L51.02 319.17 L11.34 319.17 L11.34 327.68
							 L0 310.67 Z" class="st10"/>
			</g>
			<path d="M0 310.67 L11.34 293.66 L11.34 302.16 L51.02 302.16 L51.02 310.67 L51.02 319.17 L11.34 319.17 L11.34 327.68
						 L0 310.67 Z" class="st11"/>
		</g>
		<g id="shape31-124" v:mID="31" v:groupContext="shape" transform="translate(178.055,283.061) rotate(-117.917)">
			<title>工作表.31</title>
			<path d="M-0 277.78 A124.215 68.0141 -120.72 0 0 100.75 290.93 L100.89 290.6" class="st12"/>
		</g>
		<g id="shape33-130" v:mID="33" v:groupContext="shape" transform="translate(698.497,297.563) rotate(117.73)">
			<title>工作表.33</title>
			<path d="M-0 310.67 A149.758 71.4032 112.2 0 1 102.72 297.03 L102.83 297.37" class="st12"/>
		</g>
	</g>
</svg>
