<?xml version="1.0" encoding="UTF-8" standalone="no"?>
<!DOCTYPE svg PUBLIC "-//W3C//DTD SVG 1.1//EN" "http://www.w3.org/Graphics/SVG/1.1/DTD/svg11.dtd">
<!-- 由 Microsoft Visio, SVG Export 生成 线性与非线性分类图1.svg Page-1 -->
<svg xmlns="http://www.w3.org/2000/svg" xmlns:xlink="http://www.w3.org/1999/xlink" xmlns:ev="http://www.w3.org/2001/xml-events"
		xmlns:v="http://schemas.microsoft.com/visio/2003/SVGExtensions/" width="5.42621in" height="2.37355in"
		viewBox="0 0 390.687 170.896" xml:space="preserve" color-interpolation-filters="sRGB" class="st8">
	<v:documentProperties v:langID="2052" v:metric="true" v:viewMarkup="false">
		<v:userDefs>
			<v:ud v:nameU="msvNoAutoConnect" v:val="VT0(1):26"/>
		</v:userDefs>
	</v:documentProperties>

	<style type="text/css">
	<![CDATA[
		.st1 {marker-end:url(#mrkr5-9);marker-start:url(#mrkr5-7);stroke:#000000;stroke-linecap:round;stroke-linejoin:round;stroke-width:1.5}
		.st2 {fill:#000000;fill-opacity:1;stroke:#000000;stroke-opacity:1;stroke-width:0.37313432835821}
		.st3 {fill:#ff0000;stroke:none;stroke-linecap:round;stroke-linejoin:round;stroke-width:0.24}
		.st4 {stroke:#4bacc6;stroke-linecap:round;stroke-linejoin:round;stroke-width:1.5}
		.st5 {fill:#00b050;stroke:#4bacc6;stroke-linecap:round;stroke-linejoin:round;stroke-width:0.24}
		.st6 {fill:none;stroke:none;stroke-linecap:round;stroke-linejoin:round;stroke-width:0.25}
		.st7 {fill:#000000;font-family:宋体;font-size:1.00001em}
		.st8 {fill:none;fill-rule:evenodd;font-size:12px;overflow:visible;stroke-linecap:square;stroke-miterlimit:3}
	]]>
	</style>

	<defs id="Markers">
		<g id="lend5">
			<path d="M 2 1 L 0 0 L 1.98117 -0.993387 C 1.67173 -0.364515 1.67301 0.372641 1.98465 1.00043 " style="stroke:none"/>
		</g>
		<marker id="mrkr5-7" class="st2" v:arrowType="5" v:arrowSize="2" v:setback="4.45" refX="4.45" orient="auto"
				markerUnits="strokeWidth" overflow="visible">
			<use xlink:href="#lend5" transform="scale(2.68) "/>
		</marker>
		<marker id="mrkr5-9" class="st2" v:arrowType="5" v:arrowSize="2" v:setback="4.69" refX="-4.69" orient="auto"
				markerUnits="strokeWidth" overflow="visible">
			<use xlink:href="#lend5" transform="scale(-2.68,-2.68) "/>
		</marker>
	</defs>
	<g v:mID="0" v:index="1" v:groupContext="foregroundPage">
		<title>页-1</title>
		<v:pageProperties v:drawingScale="0.0393701" v:pageScale="0.0393701" v:drawingUnits="24" v:shadowOffsetX="8.50394"
				v:shadowOffsetY="-8.50394"/>
		<g id="shape3-1" v:mID="3" v:groupContext="shape" transform="translate(48.8154,-53.5581)">
			<title>工作表.3</title>
			<path d="M0 92.11 L0 92.47 L0 170.9 L106.92 170.9" class="st1"/>
		</g>
		<g id="shape4-10" v:mID="4" v:groupContext="shape" transform="translate(80.3859,-119.113)">
			<title>圆形</title>
			<v:userDefs>
				<v:ud v:nameU="visVersion" v:val="VT0(15):26"/>
			</v:userDefs>
			<path d="M0 168.24 A2.65562 2.65562 0 0 1 5.31 168.24 A2.65562 2.65562 0 1 1 0 168.24 Z" class="st3"/>
		</g>
		<g id="shape10-12" v:mID="10" v:groupContext="shape" transform="translate(79.0715,-108.692)">
			<title>圆形.10</title>
			<v:userDefs>
				<v:ud v:nameU="visVersion" v:val="VT0(15):26"/>
			</v:userDefs>
			<path d="M0 168.24 A2.65562 2.65562 0 0 1 5.31 168.24 A2.65562 2.65562 0 1 1 0 168.24 Z" class="st3"/>
		</g>
		<g id="shape11-14" v:mID="11" v:groupContext="shape" transform="translate(89.694,-108.692)">
			<title>圆形.11</title>
			<v:userDefs>
				<v:ud v:nameU="visVersion" v:val="VT0(15):26"/>
			</v:userDefs>
			<path d="M0 168.24 A2.65562 2.65562 0 0 1 5.31 168.24 A2.65562 2.65562 0 1 1 0 168.24 Z" class="st3"/>
		</g>
		<g id="shape12-16" v:mID="12" v:groupContext="shape" transform="translate(79.0715,-98.2709)">
			<title>圆形.12</title>
			<v:userDefs>
				<v:ud v:nameU="visVersion" v:val="VT0(15):26"/>
			</v:userDefs>
			<path d="M0 168.24 A2.65562 2.65562 0 0 1 5.31 168.24 A2.65562 2.65562 0 1 1 0 168.24 Z" class="st3"/>
		</g>
		<g id="shape14-18" v:mID="14" v:groupContext="shape" transform="translate(97.6489,-115.779)">
			<title>圆形.14</title>
			<v:userDefs>
				<v:ud v:nameU="visVersion" v:val="VT0(15):26"/>
			</v:userDefs>
			<path d="M0 168.24 A2.65562 2.65562 0 0 1 5.31 168.24 A2.65562 2.65562 0 1 1 0 168.24 Z" class="st3"/>
		</g>
		<g id="shape15-20" v:mID="15" v:groupContext="shape" transform="translate(98.3255,-98.0113)">
			<title>圆形.15</title>
			<v:userDefs>
				<v:ud v:nameU="visVersion" v:val="VT0(15):26"/>
			</v:userDefs>
			<path d="M0 168.24 A2.65562 2.65562 0 0 1 5.31 168.24 A2.65562 2.65562 0 1 1 0 168.24 Z" class="st3"/>
		</g>
		<g id="shape16-22" v:mID="16" v:groupContext="shape" transform="translate(95.9004,-90.7233)">
			<title>圆形.16</title>
			<v:userDefs>
				<v:ud v:nameU="visVersion" v:val="VT0(15):26"/>
			</v:userDefs>
			<path d="M0 168.24 A2.65562 2.65562 0 0 1 5.31 168.24 A2.65562 2.65562 0 1 1 0 168.24 Z" class="st3"/>
		</g>
		<g id="shape17-24" v:mID="17" v:groupContext="shape" transform="translate(79.9518,-83.4352)">
			<title>圆形.17</title>
			<v:userDefs>
				<v:ud v:nameU="visVersion" v:val="VT0(15):26"/>
			</v:userDefs>
			<path d="M0 168.24 A2.65562 2.65562 0 0 1 5.31 168.24 A2.65562 2.65562 0 1 1 0 168.24 Z" class="st3"/>
		</g>
		<g id="shape18-26" v:mID="18" v:groupContext="shape" transform="translate(87.703,-98.0695)">
			<title>圆形.18</title>
			<v:userDefs>
				<v:ud v:nameU="visVersion" v:val="VT0(15):26"/>
			</v:userDefs>
			<path d="M0 168.24 A2.65562 2.65562 0 0 1 5.31 168.24 A2.65562 2.65562 0 1 1 0 168.24 Z" class="st3"/>
		</g>
		<g id="shape19-28" v:mID="19" v:groupContext="shape" transform="translate(87.4725,-73.0142)">
			<title>圆形.19</title>
			<v:userDefs>
				<v:ud v:nameU="visVersion" v:val="VT0(15):26"/>
			</v:userDefs>
			<path d="M0 168.24 A2.65562 2.65562 0 0 1 5.31 168.24 A2.65562 2.65562 0 1 1 0 168.24 Z" class="st3"/>
		</g>
		<g id="shape20-30" v:mID="20" v:groupContext="shape" transform="translate(104.328,-80.1008)">
			<title>圆形.20</title>
			<v:userDefs>
				<v:ud v:nameU="visVersion" v:val="VT0(15):26"/>
			</v:userDefs>
			<path d="M0 168.24 A2.65562 2.65562 0 0 1 5.31 168.24 A2.65562 2.65562 0 1 1 0 168.24 Z" class="st3"/>
		</g>
		<g id="shape21-32" v:mID="21" v:groupContext="shape" transform="translate(98.556,-69.6797)">
			<title>圆形.21</title>
			<v:userDefs>
				<v:ud v:nameU="visVersion" v:val="VT0(15):26"/>
			</v:userDefs>
			<path d="M0 168.24 A2.65562 2.65562 0 0 1 5.31 168.24 A2.65562 2.65562 0 1 1 0 168.24 Z" class="st3"/>
		</g>
		<g id="shape22-34" v:mID="22" v:groupContext="shape" transform="translate(121.591,-83.4352)">
			<title>圆形.22</title>
			<v:userDefs>
				<v:ud v:nameU="visVersion" v:val="VT0(15):26"/>
			</v:userDefs>
			<path d="M0 168.24 A2.65562 2.65562 0 0 1 5.31 168.24 A2.65562 2.65562 0 1 1 0 168.24 Z" class="st3"/>
		</g>
		<g id="shape23-36" v:mID="23" v:groupContext="shape" transform="translate(114.951,-80.1008)">
			<title>圆形.23</title>
			<v:userDefs>
				<v:ud v:nameU="visVersion" v:val="VT0(15):26"/>
			</v:userDefs>
			<path d="M0 168.24 A2.65562 2.65562 0 0 1 5.31 168.24 A2.65562 2.65562 0 1 1 0 168.24 Z" class="st3"/>
		</g>
		<g id="shape24-38" v:mID="24" v:groupContext="shape" transform="translate(132.214,-80.1008)">
			<title>圆形.24</title>
			<v:userDefs>
				<v:ud v:nameU="visVersion" v:val="VT0(15):26"/>
			</v:userDefs>
			<path d="M0 168.24 A2.65562 2.65562 0 0 1 5.31 168.24 A2.65562 2.65562 0 1 1 0 168.24 Z" class="st3"/>
		</g>
		<g id="shape25-40" v:mID="25" v:groupContext="shape" transform="translate(121.591,-69.6797)">
			<title>圆形.25</title>
			<v:userDefs>
				<v:ud v:nameU="visVersion" v:val="VT0(15):26"/>
			</v:userDefs>
			<path d="M0 168.24 A2.65562 2.65562 0 0 1 5.31 168.24 A2.65562 2.65562 0 1 1 0 168.24 Z" class="st3"/>
		</g>
		<g id="shape27-42" v:mID="27" v:groupContext="shape" transform="translate(119.374,-87.7475) rotate(34.2232)">
			<title>工作表.27</title>
			<path d="M0 170.9 L143.64 170.9" class="st4"/>
		</g>
		<g id="shape28-45" v:mID="28" v:groupContext="shape" transform="translate(54.9785,-95.9047)">
			<title>圆形.28</title>
			<v:userDefs>
				<v:ud v:nameU="visVersion" v:val="VT0(15):26"/>
			</v:userDefs>
			<path d="M0 168.24 A2.65562 2.65562 0 0 1 5.31 168.24 A2.65562 2.65562 0 1 1 0 168.24 Z" class="st5"/>
		</g>
		<g id="shape29-47" v:mID="29" v:groupContext="shape" transform="translate(53.6642,-85.4836)">
			<title>圆形.29</title>
			<v:userDefs>
				<v:ud v:nameU="visVersion" v:val="VT0(15):26"/>
			</v:userDefs>
			<path d="M0 168.24 A2.65562 2.65562 0 0 1 5.31 168.24 A2.65562 2.65562 0 1 1 0 168.24 Z" class="st5"/>
		</g>
		<g id="shape31-49" v:mID="31" v:groupContext="shape" transform="translate(53.6642,-75.0626)">
			<title>圆形.31</title>
			<v:userDefs>
				<v:ud v:nameU="visVersion" v:val="VT0(15):26"/>
			</v:userDefs>
			<path d="M0 168.24 A2.65562 2.65562 0 0 1 5.31 168.24 A2.65562 2.65562 0 1 1 0 168.24 Z" class="st5"/>
		</g>
		<g id="shape32-51" v:mID="32" v:groupContext="shape" transform="translate(72.2415,-92.5703)">
			<title>圆形.32</title>
			<v:userDefs>
				<v:ud v:nameU="visVersion" v:val="VT0(15):26"/>
			</v:userDefs>
			<path d="M0 168.24 A2.65562 2.65562 0 0 1 5.31 168.24 A2.65562 2.65562 0 1 1 0 168.24 Z" class="st3"/>
		</g>
		<g id="shape33-53" v:mID="33" v:groupContext="shape" transform="translate(72.9181,-74.803)">
			<title>圆形.33</title>
			<v:userDefs>
				<v:ud v:nameU="visVersion" v:val="VT0(15):26"/>
			</v:userDefs>
			<path d="M0 168.24 A2.65562 2.65562 0 0 1 5.31 168.24 A2.65562 2.65562 0 1 1 0 168.24 Z" class="st5"/>
		</g>
		<g id="shape34-55" v:mID="34" v:groupContext="shape" transform="translate(70.493,-67.515)">
			<title>圆形.34</title>
			<v:userDefs>
				<v:ud v:nameU="visVersion" v:val="VT0(15):26"/>
			</v:userDefs>
			<path d="M0 168.24 A2.65562 2.65562 0 0 1 5.31 168.24 A2.65562 2.65562 0 1 1 0 168.24 Z" class="st5"/>
		</g>
		<g id="shape35-57" v:mID="35" v:groupContext="shape" transform="translate(54.5444,-60.2269)">
			<title>圆形.35</title>
			<v:userDefs>
				<v:ud v:nameU="visVersion" v:val="VT0(15):26"/>
			</v:userDefs>
			<path d="M0 168.24 A2.65562 2.65562 0 0 1 5.31 168.24 A2.65562 2.65562 0 1 1 0 168.24 Z" class="st5"/>
		</g>
		<g id="shape36-59" v:mID="36" v:groupContext="shape" transform="translate(62.2957,-81.4719)">
			<title>圆形.36</title>
			<v:userDefs>
				<v:ud v:nameU="visVersion" v:val="VT0(15):26"/>
			</v:userDefs>
			<path d="M0 168.24 A2.65562 2.65562 0 0 1 5.31 168.24 A2.65562 2.65562 0 1 1 0 168.24 Z" class="st5"/>
		</g>
		<g id="shape37-61" v:mID="37" v:groupContext="shape" transform="translate(59.8705,-70.8494)">
			<title>圆形.37</title>
			<v:userDefs>
				<v:ud v:nameU="visVersion" v:val="VT0(15):26"/>
			</v:userDefs>
			<path d="M0 168.24 A2.65562 2.65562 0 0 1 5.31 168.24 A2.65562 2.65562 0 1 1 0 168.24 Z" class="st5"/>
		</g>
		<g id="shape38-63" v:mID="38" v:groupContext="shape" transform="translate(78.9209,-56.8925)">
			<title>圆形.38</title>
			<v:userDefs>
				<v:ud v:nameU="visVersion" v:val="VT0(15):26"/>
			</v:userDefs>
			<path d="M0 168.24 A2.65562 2.65562 0 0 1 5.31 168.24 A2.65562 2.65562 0 1 1 0 168.24 Z" class="st5"/>
		</g>
		<g id="shape39-65" v:mID="39" v:groupContext="shape" transform="translate(66.7326,-60.2269)">
			<title>圆形.39</title>
			<v:userDefs>
				<v:ud v:nameU="visVersion" v:val="VT0(15):26"/>
			</v:userDefs>
			<path d="M0 168.24 A2.65562 2.65562 0 0 1 5.31 168.24 A2.65562 2.65562 0 1 1 0 168.24 Z" class="st5"/>
		</g>
		<g id="shape40-67" v:mID="40" v:groupContext="shape" transform="translate(96.1838,-60.2269)">
			<title>圆形.40</title>
			<v:userDefs>
				<v:ud v:nameU="visVersion" v:val="VT0(15):26"/>
			</v:userDefs>
			<path d="M0 168.24 A2.65562 2.65562 0 0 1 5.31 168.24 A2.65562 2.65562 0 1 1 0 168.24 Z" class="st5"/>
		</g>
		<g id="shape41-69" v:mID="41" v:groupContext="shape" transform="translate(89.5433,-56.8925)">
			<title>圆形.41</title>
			<v:userDefs>
				<v:ud v:nameU="visVersion" v:val="VT0(15):26"/>
			</v:userDefs>
			<path d="M0 168.24 A2.65562 2.65562 0 0 1 5.31 168.24 A2.65562 2.65562 0 1 1 0 168.24 Z" class="st5"/>
		</g>
		<g id="shape42-71" v:mID="42" v:groupContext="shape" transform="translate(109.639,-60.2269)">
			<title>圆形.42</title>
			<v:userDefs>
				<v:ud v:nameU="visVersion" v:val="VT0(15):26"/>
			</v:userDefs>
			<path d="M0 168.24 A2.65562 2.65562 0 0 1 5.31 168.24 A2.65562 2.65562 0 1 1 0 168.24 Z" class="st5"/>
		</g>
		<g id="shape43-73" v:mID="43" v:groupContext="shape" transform="translate(65.4115,-95.9047)">
			<title>圆形.43</title>
			<v:userDefs>
				<v:ud v:nameU="visVersion" v:val="VT0(15):26"/>
			</v:userDefs>
			<path d="M0 168.24 A2.65562 2.65562 0 0 1 5.31 168.24 A2.65562 2.65562 0 1 1 0 168.24 Z" class="st5"/>
		</g>
		<g id="shape44-75" v:mID="44" v:groupContext="shape" transform="translate(226.357,-53.1329)">
			<title>工作表.44</title>
			<path d="M0 92.11 L0 92.47 L0 170.9 L106.92 170.9" class="st1"/>
		</g>
		<g id="shape45-82" v:mID="45" v:groupContext="shape" transform="translate(257.928,-118.688)">
			<title>圆形.45</title>
			<v:userDefs>
				<v:ud v:nameU="visVersion" v:val="VT0(15):26"/>
			</v:userDefs>
			<path d="M0 168.24 A2.65562 2.65562 0 0 1 5.31 168.24 A2.65562 2.65562 0 1 1 0 168.24 Z" class="st3"/>
		</g>
		<g id="shape46-84" v:mID="46" v:groupContext="shape" transform="translate(256.613,-108.267)">
			<title>圆形.46</title>
			<v:userDefs>
				<v:ud v:nameU="visVersion" v:val="VT0(15):26"/>
			</v:userDefs>
			<path d="M0 168.24 A2.65562 2.65562 0 0 1 5.31 168.24 A2.65562 2.65562 0 1 1 0 168.24 Z" class="st3"/>
		</g>
		<g id="shape47-86" v:mID="47" v:groupContext="shape" transform="translate(267.236,-108.267)">
			<title>圆形.47</title>
			<v:userDefs>
				<v:ud v:nameU="visVersion" v:val="VT0(15):26"/>
			</v:userDefs>
			<path d="M0 168.24 A2.65562 2.65562 0 0 1 5.31 168.24 A2.65562 2.65562 0 1 1 0 168.24 Z" class="st3"/>
		</g>
		<g id="shape48-88" v:mID="48" v:groupContext="shape" transform="translate(256.613,-97.8457)">
			<title>圆形.48</title>
			<v:userDefs>
				<v:ud v:nameU="visVersion" v:val="VT0(15):26"/>
			</v:userDefs>
			<path d="M0 168.24 A2.65562 2.65562 0 0 1 5.31 168.24 A2.65562 2.65562 0 1 1 0 168.24 Z" class="st3"/>
		</g>
		<g id="shape49-90" v:mID="49" v:groupContext="shape" transform="translate(275.191,-115.353)">
			<title>圆形.49</title>
			<v:userDefs>
				<v:ud v:nameU="visVersion" v:val="VT0(15):26"/>
			</v:userDefs>
			<path d="M0 168.24 A2.65562 2.65562 0 0 1 5.31 168.24 A2.65562 2.65562 0 1 1 0 168.24 Z" class="st3"/>
		</g>
		<g id="shape50-92" v:mID="50" v:groupContext="shape" transform="translate(275.867,-97.5861)">
			<title>圆形.50</title>
			<v:userDefs>
				<v:ud v:nameU="visVersion" v:val="VT0(15):26"/>
			</v:userDefs>
			<path d="M0 168.24 A2.65562 2.65562 0 0 1 5.31 168.24 A2.65562 2.65562 0 1 1 0 168.24 Z" class="st3"/>
		</g>
		<g id="shape51-94" v:mID="51" v:groupContext="shape" transform="translate(273.442,-90.2981)">
			<title>圆形.51</title>
			<v:userDefs>
				<v:ud v:nameU="visVersion" v:val="VT0(15):26"/>
			</v:userDefs>
			<path d="M0 168.24 A2.65562 2.65562 0 0 1 5.31 168.24 A2.65562 2.65562 0 1 1 0 168.24 Z" class="st3"/>
		</g>
		<g id="shape52-96" v:mID="52" v:groupContext="shape" transform="translate(257.493,-83.01)">
			<title>圆形.52</title>
			<v:userDefs>
				<v:ud v:nameU="visVersion" v:val="VT0(15):26"/>
			</v:userDefs>
			<path d="M0 168.24 A2.65562 2.65562 0 0 1 5.31 168.24 A2.65562 2.65562 0 1 1 0 168.24 Z" class="st3"/>
		</g>
		<g id="shape53-98" v:mID="53" v:groupContext="shape" transform="translate(265.245,-97.6443)">
			<title>圆形.53</title>
			<v:userDefs>
				<v:ud v:nameU="visVersion" v:val="VT0(15):26"/>
			</v:userDefs>
			<path d="M0 168.24 A2.65562 2.65562 0 0 1 5.31 168.24 A2.65562 2.65562 0 1 1 0 168.24 Z" class="st3"/>
		</g>
		<g id="shape54-100" v:mID="54" v:groupContext="shape" transform="translate(267.085,-74.3778)">
			<title>圆形.54</title>
			<v:userDefs>
				<v:ud v:nameU="visVersion" v:val="VT0(15):26"/>
			</v:userDefs>
			<path d="M0 168.24 A2.65562 2.65562 0 0 1 5.31 168.24 A2.65562 2.65562 0 1 1 0 168.24 Z" class="st3"/>
		</g>
		<g id="shape55-102" v:mID="55" v:groupContext="shape" transform="translate(281.87,-79.6756)">
			<title>圆形.55</title>
			<v:userDefs>
				<v:ud v:nameU="visVersion" v:val="VT0(15):26"/>
			</v:userDefs>
			<path d="M0 168.24 A2.65562 2.65562 0 0 1 5.31 168.24 A2.65562 2.65562 0 1 1 0 168.24 Z" class="st3"/>
		</g>
		<g id="shape56-104" v:mID="56" v:groupContext="shape" transform="translate(273.725,-72.589)">
			<title>圆形.56</title>
			<v:userDefs>
				<v:ud v:nameU="visVersion" v:val="VT0(15):26"/>
			</v:userDefs>
			<path d="M0 168.24 A2.65562 2.65562 0 0 1 5.31 168.24 A2.65562 2.65562 0 1 1 0 168.24 Z" class="st3"/>
		</g>
		<g id="shape57-106" v:mID="57" v:groupContext="shape" transform="translate(299.133,-83.01)">
			<title>圆形.57</title>
			<v:userDefs>
				<v:ud v:nameU="visVersion" v:val="VT0(15):26"/>
			</v:userDefs>
			<path d="M0 168.24 A2.65562 2.65562 0 0 1 5.31 168.24 A2.65562 2.65562 0 1 1 0 168.24 Z" class="st3"/>
		</g>
		<g id="shape58-108" v:mID="58" v:groupContext="shape" transform="translate(292.492,-79.6756)">
			<title>圆形.58</title>
			<v:userDefs>
				<v:ud v:nameU="visVersion" v:val="VT0(15):26"/>
			</v:userDefs>
			<path d="M0 168.24 A2.65562 2.65562 0 0 1 5.31 168.24 A2.65562 2.65562 0 1 1 0 168.24 Z" class="st3"/>
		</g>
		<g id="shape59-110" v:mID="59" v:groupContext="shape" transform="translate(309.755,-79.6756)">
			<title>圆形.59</title>
			<v:userDefs>
				<v:ud v:nameU="visVersion" v:val="VT0(15):26"/>
			</v:userDefs>
			<path d="M0 168.24 A2.65562 2.65562 0 0 1 5.31 168.24 A2.65562 2.65562 0 1 1 0 168.24 Z" class="st3"/>
		</g>
		<g id="shape60-112" v:mID="60" v:groupContext="shape" transform="translate(299.133,-69.2545)">
			<title>圆形.60</title>
			<v:userDefs>
				<v:ud v:nameU="visVersion" v:val="VT0(15):26"/>
			</v:userDefs>
			<path d="M0 168.24 A2.65562 2.65562 0 0 1 5.31 168.24 A2.65562 2.65562 0 1 1 0 168.24 Z" class="st3"/>
		</g>
		<g id="shape62-114" v:mID="62" v:groupContext="shape" transform="translate(232.52,-95.4795)">
			<title>圆形.62</title>
			<v:userDefs>
				<v:ud v:nameU="visVersion" v:val="VT0(15):26"/>
			</v:userDefs>
			<path d="M0 168.24 A2.65562 2.65562 0 0 1 5.31 168.24 A2.65562 2.65562 0 1 1 0 168.24 Z" class="st5"/>
		</g>
		<g id="shape63-116" v:mID="63" v:groupContext="shape" transform="translate(231.206,-85.0584)">
			<title>圆形.63</title>
			<v:userDefs>
				<v:ud v:nameU="visVersion" v:val="VT0(15):26"/>
			</v:userDefs>
			<path d="M0 168.24 A2.65562 2.65562 0 0 1 5.31 168.24 A2.65562 2.65562 0 1 1 0 168.24 Z" class="st5"/>
		</g>
		<g id="shape64-118" v:mID="64" v:groupContext="shape" transform="translate(231.206,-74.6374)">
			<title>圆形.64</title>
			<v:userDefs>
				<v:ud v:nameU="visVersion" v:val="VT0(15):26"/>
			</v:userDefs>
			<path d="M0 168.24 A2.65562 2.65562 0 0 1 5.31 168.24 A2.65562 2.65562 0 1 1 0 168.24 Z" class="st5"/>
		</g>
		<g id="shape65-120" v:mID="65" v:groupContext="shape" transform="translate(249.783,-92.1451)">
			<title>圆形.65</title>
			<v:userDefs>
				<v:ud v:nameU="visVersion" v:val="VT0(15):26"/>
			</v:userDefs>
			<path d="M0 168.24 A2.65562 2.65562 0 0 1 5.31 168.24 A2.65562 2.65562 0 1 1 0 168.24 Z" class="st3"/>
		</g>
		<g id="shape66-122" v:mID="66" v:groupContext="shape" transform="translate(250.46,-74.3778)">
			<title>圆形.66</title>
			<v:userDefs>
				<v:ud v:nameU="visVersion" v:val="VT0(15):26"/>
			</v:userDefs>
			<path d="M0 168.24 A2.65562 2.65562 0 0 1 5.31 168.24 A2.65562 2.65562 0 1 1 0 168.24 Z" class="st5"/>
		</g>
		<g id="shape67-124" v:mID="67" v:groupContext="shape" transform="translate(248.035,-67.0898)">
			<title>圆形.67</title>
			<v:userDefs>
				<v:ud v:nameU="visVersion" v:val="VT0(15):26"/>
			</v:userDefs>
			<path d="M0 168.24 A2.65562 2.65562 0 0 1 5.31 168.24 A2.65562 2.65562 0 1 1 0 168.24 Z" class="st5"/>
		</g>
		<g id="shape68-126" v:mID="68" v:groupContext="shape" transform="translate(232.086,-59.8018)">
			<title>圆形.68</title>
			<v:userDefs>
				<v:ud v:nameU="visVersion" v:val="VT0(15):26"/>
			</v:userDefs>
			<path d="M0 168.24 A2.65562 2.65562 0 0 1 5.31 168.24 A2.65562 2.65562 0 1 1 0 168.24 Z" class="st5"/>
		</g>
		<g id="shape69-128" v:mID="69" v:groupContext="shape" transform="translate(239.837,-81.0467)">
			<title>圆形.69</title>
			<v:userDefs>
				<v:ud v:nameU="visVersion" v:val="VT0(15):26"/>
			</v:userDefs>
			<path d="M0 168.24 A2.65562 2.65562 0 0 1 5.31 168.24 A2.65562 2.65562 0 1 1 0 168.24 Z" class="st5"/>
		</g>
		<g id="shape70-130" v:mID="70" v:groupContext="shape" transform="translate(237.412,-70.4242)">
			<title>圆形.70</title>
			<v:userDefs>
				<v:ud v:nameU="visVersion" v:val="VT0(15):26"/>
			</v:userDefs>
			<path d="M0 168.24 A2.65562 2.65562 0 0 1 5.31 168.24 A2.65562 2.65562 0 1 1 0 168.24 Z" class="st5"/>
		</g>
		<g id="shape71-132" v:mID="71" v:groupContext="shape" transform="translate(256.463,-56.4673)">
			<title>圆形.71</title>
			<v:userDefs>
				<v:ud v:nameU="visVersion" v:val="VT0(15):26"/>
			</v:userDefs>
			<path d="M0 168.24 A2.65562 2.65562 0 0 1 5.31 168.24 A2.65562 2.65562 0 1 1 0 168.24 Z" class="st5"/>
		</g>
		<g id="shape72-134" v:mID="72" v:groupContext="shape" transform="translate(244.274,-59.8018)">
			<title>圆形.72</title>
			<v:userDefs>
				<v:ud v:nameU="visVersion" v:val="VT0(15):26"/>
			</v:userDefs>
			<path d="M0 168.24 A2.65562 2.65562 0 0 1 5.31 168.24 A2.65562 2.65562 0 1 1 0 168.24 Z" class="st5"/>
		</g>
		<g id="shape73-136" v:mID="73" v:groupContext="shape" transform="translate(273.725,-59.8018)">
			<title>圆形.73</title>
			<v:userDefs>
				<v:ud v:nameU="visVersion" v:val="VT0(15):26"/>
			</v:userDefs>
			<path d="M0 168.24 A2.65562 2.65562 0 0 1 5.31 168.24 A2.65562 2.65562 0 1 1 0 168.24 Z" class="st5"/>
		</g>
		<g id="shape74-138" v:mID="74" v:groupContext="shape" transform="translate(267.085,-56.4673)">
			<title>圆形.74</title>
			<v:userDefs>
				<v:ud v:nameU="visVersion" v:val="VT0(15):26"/>
			</v:userDefs>
			<path d="M0 168.24 A2.65562 2.65562 0 0 1 5.31 168.24 A2.65562 2.65562 0 1 1 0 168.24 Z" class="st5"/>
		</g>
		<g id="shape75-140" v:mID="75" v:groupContext="shape" transform="translate(287.181,-59.8018)">
			<title>圆形.75</title>
			<v:userDefs>
				<v:ud v:nameU="visVersion" v:val="VT0(15):26"/>
			</v:userDefs>
			<path d="M0 168.24 A2.65562 2.65562 0 0 1 5.31 168.24 A2.65562 2.65562 0 1 1 0 168.24 Z" class="st5"/>
		</g>
		<g id="shape76-142" v:mID="76" v:groupContext="shape" transform="translate(242.953,-95.4795)">
			<title>圆形.76</title>
			<v:userDefs>
				<v:ud v:nameU="visVersion" v:val="VT0(15):26"/>
			</v:userDefs>
			<path d="M0 168.24 A2.65562 2.65562 0 0 1 5.31 168.24 A2.65562 2.65562 0 1 1 0 168.24 Z" class="st5"/>
		</g>
		<g id="shape78-144" v:mID="78" v:groupContext="shape" transform="translate(344.683,-61.0661) rotate(42.9727)">
			<title>工作表.78</title>
			<path d="M0 131.17 C9.36 138.45 15.84 160.49 26.38 167.81 C33.09 172.47 41.45 171.15 49.41 168.82 C54.53 167.32 59.48
						 165.41 64.47 162.54 C76.53 155.61 88.84 143.13 90.66 131.17" class="st4"/>
		</g>
		<g id="shape79-147" v:mID="79" v:groupContext="shape" transform="translate(18,-132.896)">
			<title>工作表.79</title>
			<desc>a2</desc>
			<v:textBlock v:margins="rect(4,4,4,4)" v:tabSpace="42.5197"/>
			<v:textRect cx="14.4724" cy="160.896" width="28.95" height="20"/>
			<rect x="0" y="150.896" width="28.9449" height="20" class="st6"/>
			<text x="8.47" y="164.5" class="st7" v:langID="2052"><v:paragraph v:horizAlign="1"/><v:tabList/>a2</text>		</g>
		<g id="shape81-150" v:mID="81" v:groupContext="shape" transform="translate(197.858,-132.896)">
			<title>工作表.81</title>
			<desc>a2</desc>
			<v:textBlock v:margins="rect(4,4,4,4)" v:tabSpace="42.5197"/>
			<v:textRect cx="10.8014" cy="160.896" width="21.61" height="20"/>
			<rect x="0" y="150.896" width="21.6028" height="20" class="st6"/>
			<text x="4.8" y="164.5" class="st7" v:langID="2052"><v:paragraph v:horizAlign="1"/><v:tabList/>a2</text>		</g>
		<g id="shape82-153" v:mID="82" v:groupContext="shape" transform="translate(79.9518,-33.5581)">
			<title>工作表.82</title>
			<desc>a1</desc>
			<v:textBlock v:margins="rect(4,4,4,4)" v:tabSpace="42.5197"/>
			<v:textRect cx="76" cy="160.896" width="152" height="20"/>
			<rect x="0" y="150.896" width="152" height="20" class="st6"/>
			<text x="70" y="164.5" class="st7" v:langID="2052"><v:paragraph v:horizAlign="1"/><v:tabList/>a1</text>		</g>
		<g id="shape83-156" v:mID="83" v:groupContext="shape" transform="translate(220.562,-33.5581)">
			<title>工作表.83</title>
			<desc>a1</desc>
			<v:textBlock v:margins="rect(4,4,4,4)" v:tabSpace="42.5197"/>
			<v:textRect cx="76" cy="160.896" width="152" height="20"/>
			<rect x="0" y="150.896" width="152" height="20" class="st6"/>
			<text x="70" y="164.5" class="st7" v:langID="2052"><v:paragraph v:horizAlign="1"/><v:tabList/>a1</text>		</g>
		<g id="shape84-159" v:mID="84" v:groupContext="shape" transform="translate(18.125,-18.125)">
			<title>工作表.84</title>
			<desc>线性函数进行分类</desc>
			<v:textBlock v:margins="rect(4,4,4,4)" v:tabSpace="42.5197"/>
			<v:textRect cx="76" cy="160.896" width="152" height="20"/>
			<rect x="0" y="150.896" width="152" height="20" class="st6"/>
			<text x="28" y="164.5" class="st7" v:langID="2052"><v:paragraph v:horizAlign="1"/><v:tabList/>线性函数进行分类</text>		</g>
		<g id="shape85-162" v:mID="85" v:groupContext="shape" transform="translate(202.483,-19.3848)">
			<title>工作表.85</title>
			<desc>非线性函数进行分类</desc>
			<v:textBlock v:margins="rect(4,4,4,4)" v:tabSpace="42.5197"/>
			<v:textRect cx="76" cy="160.896" width="152" height="20"/>
			<rect x="0" y="150.896" width="152" height="20" class="st6"/>
			<text x="22" y="164.5" class="st7" v:langID="2052"><v:paragraph v:horizAlign="1"/><v:tabList/>非线性函数进行分类</text>		</g>
	</g>
</svg>
