<?xml version="1.0" encoding="UTF-8" standalone="no"?>
<!DOCTYPE svg PUBLIC "-//W3C//DTD SVG 1.1//EN" "http://www.w3.org/Graphics/SVG/1.1/DTD/svg11.dtd">
<!-- 由 Microsoft Visio, SVG Export 生成 图2.svg Page-1 -->
<svg xmlns="http://www.w3.org/2000/svg" xmlns:xlink="http://www.w3.org/1999/xlink" xmlns:ev="http://www.w3.org/2001/xml-events"
		xmlns:v="http://schemas.microsoft.com/visio/2003/SVGExtensions/" width="6.82609in" height="4.78788in"
		viewBox="0 0 491.478 344.727" xml:space="preserve" color-interpolation-filters="sRGB" class="st12">
	<v:documentProperties v:langID="2052" v:metric="true" v:viewMarkup="false">
		<v:userDefs>
			<v:ud v:nameU="msvNoAutoConnect" v:val="VT0(1):26"/>
		</v:userDefs>
	</v:documentProperties>

	<style type="text/css">
	<![CDATA[
		.st1 {fill:#ffffff;stroke:#000000;stroke-linecap:round;stroke-linejoin:round;stroke-width:0.24}
		.st2 {fill:#000000;font-family:宋体;font-size:1.5em;font-weight:bold}
		.st3 {fill:none;stroke:#000000;stroke-dasharray:1.68,1.2;stroke-linecap:round;stroke-linejoin:round;stroke-width:0.24}
		.st4 {stroke:#000000;stroke-linecap:round;stroke-linejoin:round;stroke-width:0.75}
		.st5 {fill:#ffffff;stroke:none;stroke-linecap:butt;stroke-width:7.2}
		.st6 {fill:#000000;font-family:宋体;font-size:1.00001em;font-weight:bold}
		.st7 {fill:none;stroke:none;stroke-linecap:round;stroke-linejoin:round;stroke-width:0.75}
		.st8 {fill:#000000;font-family:宋体;font-size:1.99999em;font-weight:bold}
		.st9 {fill:#ffffff;stroke:none;stroke-linecap:round;stroke-linejoin:round;stroke-width:0.75}
		.st10 {fill:#000000;font-family:宋体;font-size:1.5em}
		.st11 {font-size:1em}
		.st12 {fill:none;fill-rule:evenodd;font-size:12px;overflow:visible;stroke-linecap:square;stroke-miterlimit:3}
	]]>
	</style>

	<g v:mID="0" v:index="1" v:groupContext="foregroundPage">
		<title>页-1</title>
		<v:pageProperties v:drawingScale="0.0393701" v:pageScale="0.0393701" v:drawingUnits="24" v:shadowOffsetX="8.50394"
				v:shadowOffsetY="-8.50394"/>
		<g id="shape1-1" v:mID="1" v:groupContext="shape" transform="translate(56.1138,-245.302)">
			<title>圆形</title>
			<desc>a1</desc>
			<v:userDefs>
				<v:ud v:nameU="visVersion" v:val="VT0(15):26"/>
			</v:userDefs>
			<v:textBlock v:margins="rect(4,4,4,4)" v:tabSpace="42.5197"/>
			<v:textRect cx="18.9541" cy="325.773" width="33.17" height="28.4311"/>
			<path d="M0 325.77 A18.9541 18.9541 0 0 1 37.91 325.77 A18.9541 18.9541 0 1 1 0 325.77 Z" class="st1"/>
			<text x="9.88" y="331.17" class="st2" v:langID="2052"><v:paragraph v:horizAlign="1"/><v:tabList/>a1</text>		</g>
		<g id="shape2-4" v:mID="2" v:groupContext="shape" transform="translate(56.1138,-189.009)">
			<title>圆形.2</title>
			<desc>a2</desc>
			<v:userDefs>
				<v:ud v:nameU="visVersion" v:val="VT0(15):26"/>
			</v:userDefs>
			<v:textBlock v:margins="rect(4,4,4,4)" v:tabSpace="42.5197"/>
			<v:textRect cx="18.9541" cy="325.773" width="33.17" height="28.4311"/>
			<path d="M0 325.77 A18.9541 18.9541 0 0 1 37.91 325.77 A18.9541 18.9541 0 1 1 0 325.77 Z" class="st1"/>
			<text x="9.88" y="331.17" class="st2" v:langID="2052"><v:paragraph v:horizAlign="1"/><v:tabList/>a2</text>		</g>
		<g id="shape4-7" v:mID="4" v:groupContext="shape" transform="translate(56.1138,-132.715)">
			<title>圆形.4</title>
			<desc>a3</desc>
			<v:userDefs>
				<v:ud v:nameU="visVersion" v:val="VT0(15):26"/>
			</v:userDefs>
			<v:textBlock v:margins="rect(4,4,4,4)" v:tabSpace="42.5197"/>
			<v:textRect cx="18.9541" cy="325.773" width="33.17" height="28.4311"/>
			<path d="M0 325.77 A18.9541 18.9541 0 0 1 37.91 325.77 A18.9541 18.9541 0 1 1 0 325.77 Z" class="st1"/>
			<text x="9.88" y="331.17" class="st2" v:langID="2052"><v:paragraph v:horizAlign="1"/><v:tabList/>a3</text>		</g>
		<g id="shape5-10" v:mID="5" v:groupContext="shape" transform="translate(220.382,-226.348)">
			<title>圆形.5</title>
			<desc>b1</desc>
			<v:userDefs>
				<v:ud v:nameU="visVersion" v:val="VT0(15):26"/>
			</v:userDefs>
			<v:textBlock v:margins="rect(4,4,4,4)" v:tabSpace="42.5197"/>
			<v:textRect cx="18.9541" cy="325.773" width="33.17" height="28.4311"/>
			<path d="M0 325.77 A18.9541 18.9541 0 0 1 37.91 325.77 A18.9541 18.9541 0 1 1 0 325.77 Z" class="st1"/>
			<text x="9.88" y="331.17" class="st2" v:langID="2052"><v:paragraph v:horizAlign="1"/><v:tabList/>b1</text>		</g>
		<g id="shape6-13" v:mID="6" v:groupContext="shape" transform="translate(220.382,-164.747)">
			<title>圆形.6</title>
			<desc>b2</desc>
			<v:userDefs>
				<v:ud v:nameU="visVersion" v:val="VT0(15):26"/>
			</v:userDefs>
			<v:textBlock v:margins="rect(4,4,4,4)" v:tabSpace="42.5197"/>
			<v:textRect cx="18.9541" cy="325.773" width="33.17" height="28.4311"/>
			<path d="M0 325.77 A18.9541 18.9541 0 0 1 37.91 325.77 A18.9541 18.9541 0 1 1 0 325.77 Z" class="st1"/>
			<text x="9.88" y="331.17" class="st2" v:langID="2052"><v:paragraph v:horizAlign="1"/><v:tabList/>b2</text>		</g>
		<g id="shape7-16" v:mID="7" v:groupContext="shape" transform="translate(31.3946,-81.0337)">
			<title>矩形</title>
			<v:userDefs>
				<v:ud v:nameU="visVersion" v:val="VT0(15):26"/>
			</v:userDefs>
			<path d="M0 344.73 L87.35 344.73 L87.35 99.15 L0 99.15 L0 344.73 Z" class="st3"/>
		</g>
		<g id="shape8-18" v:mID="8" v:groupContext="shape" transform="translate(195.663,-132.715)">
			<title>矩形.8</title>
			<v:userDefs>
				<v:ud v:nameU="visVersion" v:val="VT0(15):26"/>
			</v:userDefs>
			<path d="M0 344.73 L87.35 344.73 L87.35 187.91 L0 187.91 L0 344.73 Z" class="st3"/>
		</g>
		<g id="shape9-20" v:mID="9" v:groupContext="shape" transform="translate(145.159,-260.442) rotate(8.53077)">
			<title>工作表.9</title>
			<path d="M0 344.73 L127.77 344.73" class="st4"/>
		</g>
		<g id="shape10-23" v:mID="10" v:groupContext="shape" transform="translate(-3.66899,-193.831) rotate(-16.4624)">
			<title>工作表.10</title>
			<path d="M0 344.73 L131.76 344.73" class="st4"/>
		</g>
		<g id="shape11-26" v:mID="11" v:groupContext="shape" transform="translate(-111.216,-83.9156) rotate(-36.5384)">
			<title>工作表.11</title>
			<path d="M0 344.73 L157.27 344.73" class="st4"/>
		</g>
		<g id="shape12-29" v:mID="12" v:groupContext="shape" transform="translate(279.333,-210.212) rotate(32.5175)">
			<title>工作表.12</title>
			<path d="M0 344.73 L149.85 344.73" class="st4"/>
		</g>
		<g id="shape13-32" v:mID="13" v:groupContext="shape" transform="translate(159.022,-201.779) rotate(10.8685)">
			<title>工作表.13</title>
			<path d="M0 344.73 L128.67 344.73" class="st4"/>
		</g>
		<g id="shape14-35" v:mID="14" v:groupContext="shape" transform="translate(9.31303,-141.099) rotate(-14.2248)">
			<title>工作表.14</title>
			<desc>w23</desc>
			<v:textBlock v:margins="rect(4,4,4,4)" v:tabSpace="42.5197"/>
			<v:textRect cx="65.1787" cy="344.727" width="130.36" height="0"/>
			<path d="M0 344.73 L130.36 344.73" class="st4"/>
			<rect v:rectContext="textBkgnd" x="56.1083" y="337.527" width="18.1406" height="14.4001" class="st5"/>
			<text x="56.11" y="348.33" class="st6" v:langID="2052"><v:paragraph v:horizAlign="1"/><v:tabList/>w23</text>		</g>
		<g id="shape15-40" v:mID="15" v:groupContext="shape" transform="translate(258.291,-245.302)">
			<title>工作表.15</title>
			<path d="M0 344.73 L120.04 344.73" class="st4"/>
		</g>
		<g id="shape16-43" v:mID="16" v:groupContext="shape" transform="translate(258.291,-183.702)">
			<title>工作表.16</title>
			<path d="M0 344.73 L120.04 344.73" class="st4"/>
		</g>
		<g id="shape17-46" v:mID="17" v:groupContext="shape" transform="translate(378.333,-226.348)">
			<title>工作表.17</title>
			<desc>h1</desc>
			<v:textBlock v:margins="rect(4,4,4,4)" v:tabSpace="42.5197"/>
			<v:textRect cx="18.9541" cy="328.932" width="37.91" height="31.5901"/>
			<rect x="0" y="313.137" width="37.9081" height="31.5901" class="st7"/>
			<text x="6.86" y="336.13" class="st8" v:langID="2052"><v:paragraph v:horizAlign="1"/><v:tabList/>h1</text>		</g>
		<g id="shape18-49" v:mID="18" v:groupContext="shape" transform="translate(312.497,-172.557)">
			<title>工作表.18</title>
			<desc>h2</desc>
			<v:textBlock v:margins="rect(4,4,4,4)" v:tabSpace="42.5197"/>
			<v:textRect cx="84.6966" cy="333.583" width="169.4" height="22.2886"/>
			<rect x="0" y="322.439" width="169.393" height="22.2886" class="st7"/>
			<text x="72.6" y="340.78" class="st8" v:langID="2052"><v:paragraph v:horizAlign="1"/><v:tabList/>h2</text>		</g>
		<g id="shape19-52" v:mID="19" v:groupContext="shape" transform="translate(206.647,-213.966)">
			<title>工作表.19</title>
			<desc>+bias</desc>
			<v:textBlock v:margins="rect(4,4,4,4)" v:tabSpace="42.5197"/>
			<v:textRect cx="84.6966" cy="333.583" width="169.4" height="22.2886"/>
			<rect x="0" y="322.439" width="169.393" height="22.2886" class="st7"/>
			<text x="54.46" y="340.78" class="st8" v:langID="2052"><v:paragraph v:horizAlign="1"/><v:tabList/>+bias</text>		</g>
		<g id="shape21-55" v:mID="21" v:groupContext="shape" transform="translate(206.647,-151.603)">
			<title>工作表.21</title>
			<desc>+bias</desc>
			<v:textBlock v:margins="rect(4,4,4,4)" v:tabSpace="42.5197"/>
			<v:textRect cx="84.6966" cy="333.583" width="169.4" height="22.2886"/>
			<rect x="0" y="322.439" width="169.393" height="22.2886" class="st7"/>
			<text x="54.46" y="340.78" class="st8" v:langID="2052"><v:paragraph v:horizAlign="1"/><v:tabList/>+bias</text>		</g>
		<g id="shape22-58" v:mID="22" v:groupContext="shape" transform="translate(170.685,-198.919)">
			<title>工作表.22</title>
			<desc>w21</desc>
			<v:textBlock v:margins="rect(4,4,4,4)" v:tabSpace="42.5197"/>
			<v:textRect cx="18.9541" cy="341.019" width="37.91" height="7.41613"/>
			<rect x="0" y="337.311" width="37.9081" height="7.41613" class="st9"/>
			<text x="9.88" y="344.62" class="st6" v:langID="2052"><v:paragraph v:horizAlign="1"/><v:tabList/>w21</text>		</g>
		<g id="shape23-61" v:mID="23" v:groupContext="shape" transform="translate(156.649,-189.009)">
			<title>工作表.23</title>
			<desc>w22</desc>
			<v:textBlock v:margins="rect(4,4,4,4)" v:tabSpace="42.5197"/>
			<v:textRect cx="18.9541" cy="341.019" width="37.91" height="7.41613"/>
			<rect x="0" y="337.311" width="37.9081" height="7.41613" class="st9"/>
			<text x="9.88" y="344.62" class="st6" v:langID="2052"><v:paragraph v:horizAlign="1"/><v:tabList/>w22</text>		</g>
		<g id="shape24-64" v:mID="24" v:groupContext="shape" transform="translate(156.649,-228.164)">
			<title>工作表.24</title>
			<desc>w12</desc>
			<v:textBlock v:margins="rect(4,4,4,4)" v:tabSpace="42.5197"/>
			<v:textRect cx="18.9541" cy="341.019" width="37.91" height="7.41613"/>
			<rect x="0" y="337.311" width="37.9081" height="7.41613" class="st9"/>
			<text x="9.88" y="344.62" class="st6" v:langID="2052"><v:paragraph v:horizAlign="1"/><v:tabList/>w12</text>		</g>
		<g id="shape25-67" v:mID="25" v:groupContext="shape" transform="translate(166.962,-217.888)">
			<title>工作表.25</title>
			<desc>w13</desc>
			<v:textBlock v:margins="rect(4,4,4,4)" v:tabSpace="42.5197"/>
			<v:textRect cx="18.9541" cy="341.019" width="37.91" height="7.41613"/>
			<rect x="0" y="337.311" width="37.9081" height="7.41613" class="st9"/>
			<text x="9.88" y="344.62" class="st6" v:langID="2052"><v:paragraph v:horizAlign="1"/><v:tabList/>w13</text>		</g>
		<g id="shape26-70" v:mID="26" v:groupContext="shape" transform="translate(167.977,-256.84)">
			<title>工作表.26</title>
			<desc>w11</desc>
			<v:textBlock v:margins="rect(4,4,4,4)" v:tabSpace="42.5197"/>
			<v:textRect cx="18.9541" cy="341.019" width="37.91" height="7.41613"/>
			<rect x="0" y="337.311" width="37.9081" height="7.41613" class="st9"/>
			<text x="9.88" y="344.62" class="st6" v:langID="2052"><v:paragraph v:horizAlign="1"/><v:tabList/>w11</text>		</g>
		<g id="shape27-73" v:mID="27" v:groupContext="shape" transform="translate(18.375,-18.375)">
			<title>工作表.27</title>
			<desc>网络层1 输入层</desc>
			<v:textBlock v:margins="rect(4,4,4,4)" v:tabSpace="42.5197"/>
			<v:textRect cx="56.6929" cy="319.215" width="113.39" height="51.0236"/>
			<rect x="0" y="293.704" width="113.386" height="51.0236" class="st7"/>
			<text x="25.19" y="313.82" class="st10" v:langID="2052"><v:paragraph v:horizAlign="1"/><v:tabList/>网络层1<v:newlineChar/><tspan
						x="11.69" dy="1.2em" class="st11">（</tspan>输入层）</text>		</g>
		<g id="shape28-77" v:mID="28" v:groupContext="shape" transform="translate(163.336,-32.5197)">
			<title>工作表.28</title>
			<desc>网络层2</desc>
			<v:textBlock v:margins="rect(4,4,4,4)" v:tabSpace="42.5197"/>
			<v:textRect cx="76" cy="334.727" width="152" height="20"/>
			<rect x="0" y="324.727" width="152" height="20" class="st7"/>
			<text x="44.5" y="340.13" class="st10" v:langID="2052"><v:paragraph v:horizAlign="1"/><v:tabList/>网络层2</text>		</g>
		<g id="shape29-80" v:mID="29" v:groupContext="shape" transform="translate(321.478,-32.5197)">
			<title>工作表.29</title>
			<desc>输出</desc>
			<v:textBlock v:margins="rect(4,4,4,4)" v:tabSpace="42.5197"/>
			<v:textRect cx="76" cy="334.727" width="152" height="20"/>
			<rect x="0" y="324.727" width="152" height="20" class="st7"/>
			<text x="58" y="340.13" class="st10" v:langID="2052"><v:paragraph v:horizAlign="1"/><v:tabList/>输出</text>		</g>
	</g>
</svg>
