<?xml version="1.0" encoding="UTF-8" standalone="no"?>
<!DOCTYPE svg PUBLIC "-//W3C//DTD SVG 1.1//EN" "http://www.w3.org/Graphics/SVG/1.1/DTD/svg11.dtd">
<!-- 由 Microsoft Visio, SVG Export 生成 学习率.svg Page-1 -->
<svg xmlns="http://www.w3.org/2000/svg" xmlns:xlink="http://www.w3.org/1999/xlink" xmlns:ev="http://www.w3.org/2001/xml-events"
		xmlns:v="http://schemas.microsoft.com/visio/2003/SVGExtensions/" width="13.0301in" height="5.71701in"
		viewBox="0 0 938.167 411.625" xml:space="preserve" color-interpolation-filters="sRGB" class="st9">
	<v:documentProperties v:langID="2052" v:metric="true" v:viewMarkup="false">
		<v:userDefs>
			<v:ud v:nameU="msvNoAutoConnect" v:val="VT0(1):26"/>
		</v:userDefs>
	</v:documentProperties>

	<style type="text/css">
	<![CDATA[
		.st1 {marker-end:url(#mrkr1-9);marker-start:url(#mrkr1-7);stroke:#000000;stroke-linecap:round;stroke-linejoin:round;stroke-width:2.25}
		.st2 {fill:#000000;fill-opacity:1;stroke:#000000;stroke-opacity:1;stroke-width:0.47169811320755}
		.st3 {stroke:#00b050;stroke-linecap:round;stroke-linejoin:round;stroke-width:3}
		.st4 {fill:none;stroke:none;stroke-linecap:round;stroke-linejoin:round;stroke-width:0.75}
		.st5 {fill:#000000;font-family:宋体;font-size:2.50001em;font-weight:bold}
		.st6 {stroke:#ff0000;stroke-linecap:round;stroke-linejoin:round;stroke-width:2.25}
		.st7 {fill:#000000;font-family:宋体;font-size:1.5em;font-weight:bold}
		.st8 {fill:#ff0000;stroke:#ff0000;stroke-linecap:round;stroke-linejoin:round;stroke-width:0.24}
		.st9 {fill:none;fill-rule:evenodd;font-size:12px;overflow:visible;stroke-linecap:square;stroke-miterlimit:3}
	]]>
	</style>

	<defs id="Markers">
		<g id="lend1">
			<path d="M 1 -1 L 0 0 L 1 1 " style="stroke-linecap:round;stroke-linejoin:round;fill:none"/>
		</g>
		<marker id="mrkr1-7" class="st2" v:arrowType="1" v:arrowSize="2" orient="auto" markerUnits="strokeWidth" overflow="visible">
			<use xlink:href="#lend1" transform="scale(2.12) "/>
		</marker>
		<marker id="mrkr1-9" class="st2" v:arrowType="1" v:arrowSize="2" orient="auto" markerUnits="strokeWidth" overflow="visible">
			<use xlink:href="#lend1" transform="scale(-2.12,-2.12) "/>
		</marker>
	</defs>
	<g v:mID="0" v:index="1" v:groupContext="foregroundPage">
		<title>页-1</title>
		<v:pageProperties v:drawingScale="0.0393701" v:pageScale="0.0393701" v:drawingUnits="24" v:shadowOffsetX="8.50394"
				v:shadowOffsetY="-8.50394"/>
		<v:layer v:name="连接线" v:index="0"/>
		<g id="shape4-1" v:mID="4" v:groupContext="shape" transform="translate(69.3986,-110.501)">
			<title>工作表.4</title>
			<path d="M0 135.25 L0 411.62 L368.5 411.62" class="st1"/>
		</g>
		<g id="shape5-10" v:mID="5" v:groupContext="shape" transform="translate(494.595,-110.501)">
			<title>工作表.5</title>
			<path d="M0 135.25 L0 411.62 L368.5 411.62" class="st1"/>
		</g>
		<g id="shape9-17" v:mID="9" v:groupContext="shape" transform="translate(-89.0533,29.8316) rotate(-51.8428)">
			<title>工作表.9</title>
			<path d="M0 381.76 A181.965 99.9903 -7.55 0 0 252.35 381.76" class="st3"/>
		</g>
		<g id="shape10-20" v:mID="10" v:groupContext="shape" transform="translate(425.585,-132.84) rotate(59.0362)">
			<title>工作表.10</title>
			<path d="M0 388.93 A222.88 56.873 -165.87 0 0 231.4 388.93" class="st3"/>
		</g>
		<g id="shape11-23" v:mID="11" v:groupContext="shape" transform="translate(364.49,44.0049) rotate(-51.8428)">
			<title>工作表.11</title>
			<path d="M0 381.76 A181.965 99.9903 -7.55 0 0 252.35 381.76" class="st3"/>
		</g>
		<g id="shape12-26" v:mID="12" v:groupContext="shape" transform="translate(879.128,-118.667) rotate(59.0362)">
			<title>工作表.12</title>
			<path d="M0 388.93 A222.88 56.873 -165.87 0 0 231.4 388.93" class="st3"/>
		</g>
		<g id="shape13-29" v:mID="13" v:groupContext="shape" transform="translate(18.375,-259.32)">
			<title>工作表.13</title>
			<desc>J</desc>
			<v:textBlock v:margins="rect(4,4,4,4)" v:tabSpace="42.5197"/>
			<v:textRect cx="18.4252" cy="404.538" width="36.86" height="14.1732"/>
			<rect x="0" y="397.452" width="36.8504" height="14.1732" class="st4"/>
			<text x="10.87" y="413.54" class="st5" v:langID="2052"><v:paragraph v:horizAlign="1"/><v:tabList/>J</text>		</g>
		<g id="shape14-32" v:mID="14" v:groupContext="shape" transform="translate(168.611,-75.0679)">
			<title>工作表.14</title>
			<desc>Theta</desc>
			<v:textBlock v:margins="rect(4,4,4,4)" v:tabSpace="42.5197"/>
			<v:textRect cx="42.5197" cy="404.538" width="85.04" height="14.1732"/>
			<rect x="0" y="397.452" width="85.0394" height="14.1732" class="st4"/>
			<text x="4.73" y="413.54" class="st5" v:langID="2052"><v:paragraph v:horizAlign="1"/><v:tabList/>Theta</text>		</g>
		<g id="shape15-35" v:mID="15" v:groupContext="shape" transform="translate(622.155,-75.0679)">
			<title>工作表.15</title>
			<desc>Theta</desc>
			<v:textBlock v:margins="rect(4,4,4,4)" v:tabSpace="42.5197"/>
			<v:textRect cx="42.5197" cy="404.538" width="85.04" height="14.1732"/>
			<rect x="0" y="397.452" width="85.0394" height="14.1732" class="st4"/>
			<text x="4.73" y="413.54" class="st5" v:langID="2052"><v:paragraph v:horizAlign="1"/><v:tabList/>Theta</text>		</g>
		<g id="shape16-38" v:mID="16" v:groupContext="shape" transform="translate(452.076,-266.406)">
			<title>工作表.16</title>
			<desc>J</desc>
			<v:textBlock v:margins="rect(4,4,4,4)" v:tabSpace="42.5197"/>
			<v:textRect cx="18.4252" cy="404.538" width="36.86" height="14.1732"/>
			<rect x="0" y="397.452" width="36.8504" height="14.1732" class="st4"/>
			<text x="10.87" y="413.54" class="st5" v:langID="2052"><v:paragraph v:horizAlign="1"/><v:tabList/>J</text>		</g>
		<g id="shape18-41" v:mID="18" v:groupContext="shape" transform="translate(190.3,-145.934)">
			<title>工作表.18</title>
			<path d="M168.53 242.86 L156.86 272.17 L143.29 298.5 L128.92 321.36 L113.65 341.76 L99.29 358.16 L85.09 372.14 L68.29
						 386.11 L52.49 396.89 L20.83 411.62 L0 405.28" class="st6"/>
		</g>
		<g id="shape19-44" v:mID="19" v:groupContext="shape" transform="translate(321.336,-294.695)">
			<title>工作表.19</title>
			<desc>初始点</desc>
			<v:textBlock v:margins="rect(4,4,4,4)" v:tabSpace="42.5197"/>
			<v:textRect cx="76" cy="401.625" width="152" height="20"/>
			<rect x="0" y="391.625" width="152" height="20" class="st4"/>
			<text x="48.89" y="407.02" class="st7" v:langID="2052"><v:paragraph v:horizAlign="1"/><v:tabList/>初始点</text>		</g>
		<g id="shape21-47" v:mID="21" v:groupContext="shape" transform="translate(144.242,-125.773)">
			<title>工作表.21</title>
			<desc>理想点</desc>
			<v:textBlock v:margins="rect(4,4,4,4)" v:tabSpace="42.5197"/>
			<v:textRect cx="76" cy="401.625" width="152" height="20"/>
			<rect x="0" y="391.625" width="152" height="20" class="st4"/>
			<text x="48.89" y="407.02" class="st7" v:langID="2052"><v:paragraph v:horizAlign="1"/><v:tabList/>理想点</text>		</g>
		<g id="shape22-50" v:mID="22" v:groupContext="shape" transform="translate(345.777,-300.521)">
			<title>圆形</title>
			<v:userDefs>
				<v:ud v:nameU="visVersion" v:val="VT0(15):26"/>
			</v:userDefs>
			<path d="M0 404.54 A7.08661 7.08661 0 0 1 14.17 404.54 A7.08661 7.08661 0 1 1 0 404.54 Z" class="st8"/>
		</g>
		<g id="shape23-52" v:mID="23" v:groupContext="shape" transform="translate(204.044,-145.934)">
			<title>圆形.23</title>
			<v:userDefs>
				<v:ud v:nameU="visVersion" v:val="VT0(15):26"/>
			</v:userDefs>
			<path d="M0 404.54 A7.08661 7.08661 0 0 1 14.17 404.54 A7.08661 7.08661 0 1 1 0 404.54 Z" class="st8"/>
		</g>
		<g id="shape24-54" v:mID="24" v:groupContext="shape" transform="translate(767.792,-238.69)">
			<title>工作表.24</title>
			<desc>初始点</desc>
			<v:textBlock v:margins="rect(4,4,4,4)" v:tabSpace="42.5197"/>
			<v:textRect cx="76" cy="401.625" width="152" height="20"/>
			<rect x="0" y="391.625" width="152" height="20" class="st4"/>
			<text x="48.89" y="407.02" class="st7" v:langID="2052"><v:paragraph v:horizAlign="1"/><v:tabList/>初始点</text>		</g>
		<g id="shape25-57" v:mID="25" v:groupContext="shape" transform="translate(785.147,-241.603)">
			<title>圆形.25</title>
			<v:userDefs>
				<v:ud v:nameU="visVersion" v:val="VT0(15):26"/>
			</v:userDefs>
			<path d="M0 404.54 A7.08661 7.08661 0 0 1 14.17 404.54 A7.08661 7.08661 0 1 1 0 404.54 Z" class="st8"/>
		</g>
		<g id="shape26-59" v:mID="26" v:groupContext="shape" transform="translate(588.674,-103.414)">
			<title>工作表.26</title>
			<desc>理想点</desc>
			<v:textBlock v:margins="rect(4,4,4,4)" v:tabSpace="42.5197"/>
			<v:textRect cx="76" cy="401.625" width="152" height="20"/>
			<rect x="0" y="391.625" width="152" height="20" class="st4"/>
			<text x="48.89" y="407.02" class="st7" v:langID="2052"><v:paragraph v:horizAlign="1"/><v:tabList/>理想点</text>		</g>
		<g id="shape27-62" v:mID="27" v:groupContext="shape" transform="translate(648.476,-123.575)">
			<title>圆形.27</title>
			<v:userDefs>
				<v:ud v:nameU="visVersion" v:val="VT0(15):26"/>
			</v:userDefs>
			<path d="M0 404.54 A7.08661 7.08661 0 0 1 14.17 404.54 A7.08661 7.08661 0 1 1 0 404.54 Z" class="st8"/>
		</g>
		<g id="shape28-64" v:mID="28" v:groupContext="shape" transform="translate(550.214,-212.523)">
			<title>工作表.28</title>
			<path d="M237.01 380.47 L41.11 411.62 L256.46 339.02 L0 308.76" class="st6"/>
		</g>
		<g id="shape29-67" v:mID="29" v:groupContext="shape" transform="translate(111.918,-18.375)">
			<title>工作表.29</title>
			<desc>学习率适中</desc>
			<v:textBlock v:margins="rect(4,4,4,4)" v:tabSpace="42.5197"/>
			<v:textRect cx="106.299" cy="393.908" width="212.6" height="35.4331"/>
			<rect x="0" y="376.192" width="212.598" height="35.4331" class="st4"/>
			<text x="61.12" y="399.31" class="st7" v:langID="2052"><v:paragraph v:horizAlign="1"/><v:tabList/>学习率适中</text>		</g>
		<g id="shape30-70" v:mID="30" v:groupContext="shape" transform="translate(597.714,-40.8947)">
			<title>工作表.30</title>
			<desc>学习率过大</desc>
			<v:textBlock v:margins="rect(4,4,4,4)" v:tabSpace="42.5197"/>
			<v:textRect cx="76" cy="401.625" width="152" height="20"/>
			<rect x="0" y="391.625" width="152" height="20" class="st4"/>
			<text x="30.82" y="407.02" class="st7" v:langID="2052"><v:paragraph v:horizAlign="1"/><v:tabList/>学习率过大</text>		</g>
	</g>
</svg>
